<?xml version="1.0" encoding="UTF-8" standalone="no"?>
<!-- Created with Inkscape (http://www.inkscape.org/) -->

<svg
   version="1.1"
   width="646.966"
   height="273.306"
   viewBox="0 0 646.96597 273.306"
   id="svg2"
   xml:space="preserve"
   sodipodi:docname="FE-Schrift.svg"
   inkscape:version="1.4.2 (ebf0e940, 2025-05-08)"
   inkscape:export-filename="src/characters/A_01.png"
   inkscape:export-xdpi="150"
   inkscape:export-ydpi="150"
   xmlns:inkscape="http://www.inkscape.org/namespaces/inkscape"
   xmlns:sodipodi="http://sodipodi.sourceforge.net/DTD/sodipodi-0.dtd"
   xmlns="http://www.w3.org/2000/svg"
   xmlns:svg="http://www.w3.org/2000/svg"
   xmlns:rdf="http://www.w3.org/1999/02/22-rdf-syntax-ns#"
   xmlns:cc="http://creativecommons.org/ns#"
   xmlns:dc="http://purl.org/dc/elements/1.1/"><sodipodi:namedview
   id="namedview1"
   pagecolor="#505050"
   bordercolor="#eeeeee"
   borderopacity="1"
   inkscape:showpageshadow="0"
   inkscape:pageopacity="0"
   inkscape:pagecheckerboard="0"
   inkscape:deskcolor="#505050"
   inkscape:zoom="2.1525793"
   inkscape:cx="455.73234"
   inkscape:cy="455.0355"
   inkscape:window-width="1776"
   inkscape:window-height="962"
   inkscape:window-x="7"
   inkscape:window-y="25"
   inkscape:window-maximized="0"
   inkscape:current-layer="svg2" /><defs
   id="defs3199">
	
	
	
	
	
	
	
	
	
	
	
	
	
	
	
	
	
	
	
	
	
	
	
	
	
	
	
	
	
	
	
	
	
	
	
	
	
	
	
</defs>
<metadata
   id="metadata3113">
<rdf:RDF><cc:Work
     rdf:about=""><dc:format>image/svg+xml</dc:format><dc:type
       rdf:resource="http://purl.org/dc/dcmitype/StillImage" /><dc:title /></cc:Work></rdf:RDF></metadata>
<rect
   style="fill:#ffffff;stroke-width:0.961078"
   id="rect1"
   width="50"
   height="80"
   x="13.947706"
   y="335.06262"
   inkscape:export-filename="src/characters/A_01.png"
   inkscape:export-xdpi="250"
   inkscape:export-ydpi="250" /><path
   d="m 58.628845,78.32724 c 0.143,0.543 0.214,0.986 0.214,1.33 0,1.83 -0.943,2.744 -2.831,2.744 h -4.545 c -1.487,0 -2.287,-0.485 -2.401,-1.458 l -1.672,-9.305 c -0.343,-1.201 -0.972,-1.801 -1.887,-1.801 h -13.979 c -0.458,0 -0.815,0.128 -1.072,0.386 -0.286,0.372 -0.487,0.844 -0.601,1.415 l -1.801,9.305 c 0,0.429 -0.229,0.787 -0.687,1.072 -0.486,0.257 -0.929,0.386 -1.329,0.386 h -4.288 c -0.487,0 -1.001,-0.2 -1.544,-0.6 -0.572,-0.343 -0.857,-1.057 -0.857,-2.144 0,-0.257 0.085,-0.7 0.257,-1.33 l 10.377,-55.146 c 0.199,-1.086 0.757,-1.958 1.672,-2.616 0.829,-0.542 1.629,-0.814 2.401,-0.814 h 9.991 c 0.915,0 1.672,0.157 2.273,0.472 0.628,0.4 1.072,1.072 1.329,2.015 z m -13.508,-18.868 -5.103,-28.388 c -0.257,-0.886 -0.701,-1.33 -1.33,-1.33 -0.658,0 -1.101,0.443 -1.329,1.33 l -5.231,28.388 v 0.128 c 0,0.086 0,0.171 0,0.257 0,0.458 0.157,0.844 0.472,1.158 0.285,0.343 0.686,0.515 1.201,0.515 h 9.562 c 1.172,0 1.758,-0.686 1.758,-2.058 z"
   id="path3117" /><path
   d="m 106.75685,63.27524 c 0,5.975 -1.71501,10.677 -5.14601,14.108 -3.429995,3.345 -8.232995,5.017 -14.407995,5.017 h -18.396 c -0.458,0 -0.858,-0.171 -1.201,-0.514 -0.401,-0.4 -0.601,-0.829 -0.601,-1.287 v -59.177 c 0,-0.4 0.2,-0.8 0.601,-1.201 0.314,-0.314 0.714,-0.472 1.201,-0.472 h 18.396 c 5.06,0 9.076,1.187 12.05,3.559 3.029995,2.487 4.544995,6.189 4.544995,11.106 0,2.859 -0.52899,5.317 -1.586,7.375 -0.601,1.029 -1.31499,2.03 -2.144,3.002 -0.829995,0.972 -1.657995,1.93 -2.486995,2.873 l -0.128,0.128 c -0.257,0.315 -0.257,0.543 0,0.686 l 0.128,0.129 c 0.343,0.257 0.836,0.607 1.479,1.05 0.643,0.444 1.308005,0.922 1.993995,1.437 1.572,1.573 2.758,3.045 3.559,4.417 0.8,1.602 1.271,2.645 1.41501,3.13 0.486,1.347 0.729,2.891 0.729,4.634 z m -12.993005,-27.316 c 0,-2.515 -0.873,-4.545 -2.616,-6.089 -1.773,-1.515 -3.931,-2.273 -6.475,-2.273 h -5.832 c -1.201,0 -1.801,0.6 -1.801,1.801 v 13.979 c 0,0.372 0.157,0.801 0.472,1.287 0.314,0.315 0.714,0.472 1.201,0.472 h 6.346 c 5.803,0 8.705,-3.058 8.705,-9.177 z m 2.959,26.973 c 0,-3.087 -0.83,-5.631 -2.487,-7.633 -1.687,-2 -3.988,-3.002 -6.904,-3.002 h -8.491 c -0.572,0 -1.015,0.201 -1.329,0.601 -0.315,0.572 -0.472,1.015 -0.472,1.329 v 16.467 c 0,0.257 0.157,0.658 0.472,1.201 0.542,0.315 0.943,0.472 1.201,0.472 h 8.833 c 2.745,0 4.974,-0.915 6.689,-2.745 1.658,-1.658 2.488,-3.888 2.488,-6.69 z"
   id="path3119" /><path
   d="m 154.67084,63.18924 c 0,6.003 -1.787,10.735 -5.36,14.194 -3.602,3.345 -8.462,5.017 -14.58,5.017 -7.004,0 -12.04999,-1.672 -15.13699,-5.017 -3.116,-3.373 -4.67401,-8.147 -4.67401,-14.322 v -32.719 c 0,-3.173 1.04301,-5.76 3.13,-7.762 2.144,-1.887 4.688,-2.83 7.633,-2.83 h 21.226 c 1.458,0 2.73,0.472 3.816,1.415 0.972,1.058 1.458,2.416 1.458,4.074 l -1.458,11.664 c -0.143,0.972 -0.572,1.458 -1.286,1.458 h -5.618 c -1.115,0 -1.672,-0.6 -1.672,-1.801 v -7.29 c 0,-0.343 -0.2,-0.743 -0.6,-1.201 -0.315,-0.314 -0.758,-0.472 -1.33,-0.472 h -11.063 c -1.17199,0 -2.173,0.401 -3.001,1.201 -0.801,0.744 -1.20099,1.744 -1.20099,3.002 v 29.803 c 0,3.431 0.757,6.104 2.272,8.019 1.54399,1.83 4.04499,2.745 7.50399,2.745 3.059,0 5.48901,-0.958 7.29001,-2.873 1.743,-1.858 2.616,-4.288 2.616,-7.29 0,-1.029 0.59999,-1.543 1.80099,-1.543 h 6.34701 c 0.74299,0 1.258,0.243 1.544,0.729 0.22799,0.513 0.343,1.113 0.34299,1.799 z"
   id="path3121" /><path
   d="m 201.72685,66.87724 c 0,4.631 -1.51601,8.362 -4.54501,11.192 -3.11699,2.888 -6.93299,4.331 -11.44999,4.331 h -21.956 c -0.458,0 -0.886,-0.2 -1.286,-0.6 -0.343,-0.515 -0.515,-0.915 -0.515,-1.201 v -6.218 c 0,-0.257 0.171,-0.529 0.515,-0.815 0.4,-0.285 0.915,-0.529 1.543,-0.729 0.858,-0.314 1.415,-0.6 1.672,-0.857 0.314,-0.172 0.472,-0.486 0.472,-0.943 v -40.91 c 0,-0.4 -0.157,-0.757 -0.472,-1.072 -0.2,-0.114 -0.443,-0.236 -0.729,-0.365 -0.286,-0.128 -0.6,-0.292 -0.94301,-0.493 -0.572,-0.143 -1.08699,-0.371 -1.543,-0.686 -0.34299,-0.171 -0.51499,-0.457 -0.51499,-0.857 v -5.231 c 0,-0.343 0.17099,-0.743 0.51499,-1.201 0.257,-0.314 0.64301,-0.472 1.15801,-0.472 h 24.014 c 4.259,0 7.63299,1.43 10.12,4.288 2.63,3.001 3.945,6.619 3.945,10.849 z m -10.03501,-0.129 v -31.604 c 0,-1.887 -0.55699,-3.645 -1.67199,-5.274 -1.144,-1.515 -2.64501,-2.273 -4.502,-2.273 h -7.54701 c -1.17199,0 -1.75799,0.6 -1.75799,1.801 v 41.167 c 0,1.201 0.58499,1.801 1.75799,1.801 h 7.54701 c 1.74399,0 3.216,-0.486 4.41699,-1.458 1.171,-1.057 1.757,-2.444 1.757,-4.16 z"
   id="path3123" /><path
   d="m 251.35584,80.60024 c 0,0.458 -0.15799,0.886 -0.472,1.287 -0.315,0.343 -0.715,0.514 -1.201,0.514 h -36.27799 c -1.20101,0 -1.801,-0.6 -1.801,-1.801 v -59.177 c 0,-1.115 0.59999,-1.672 1.801,-1.672 h 33.534 c 0.57099,0 1.014,0.157 1.329,0.472 0.39999,0.4 0.601,0.8 0.601,1.201 v 4.502 c 0,0.315 -0.15801,0.715 -0.47201,1.201 -0.315,0.315 -0.758,0.472 -1.33,0.472 h -23.62799 c -1.20101,0 -1.801,0.6 -1.801,1.801 v 10.634 c 0,0.372 0.15699,0.801 0.47199,1.287 0.31401,0.315 0.757,0.472 1.32901,0.472 h 16.124 c 0.457,0 0.88599,0.2 1.286,0.601 0.31399,0.486 0.472,0.929 0.472,1.329 v 4.288 c 0,1.201 -0.58601,1.801 -1.758,1.801 h -16.124 c -1.201,0 -1.801,0.557 -1.801,1.672 v 18.954 c 0,0.401 0.157,0.844 0.472,1.33 0.429,0.4 0.872,0.6 1.329,0.6 h 26.244 c 0.485,0 0.886,0.158 1.201,0.472 0.314,0.429 0.472,0.873 0.472,1.33 z"
   id="path3125" /><path
   d="m 298.41185,25.92524 c 0,0.401 -0.157,0.801 -0.472,1.201 -0.286,0.315 -0.686,0.472 -1.201,0.472 h -23.842 c -1.28701,0 -2.288,0.486 -3.00101,1.458 -0.80099,0.943 -1.20099,2.087 -1.20099,3.431 v 16.252 c 0,0.372 0.157,0.801 0.472,1.287 0.4,0.4 0.8,0.6 1.201,0.6 h 18.825 c 0.543,0 0.972,0.158 1.28699,0.472 0.31401,0.487 0.472,0.93 0.472,1.33 v 5.618 c 0,1.201 -0.586,1.801 -1.758,1.801 h -18.696 c -1.201,0 -1.801,0.586 -1.801,1.758 v 18.995 c 0,1.201 -0.601,1.801 -1.801,1.801 h -6.432 c -1.20099,0 -1.801,-0.6 -1.801,-1.801 v -53.002 c 0,-2.115 0.80001,-3.973 2.40101,-5.575 1.572,-1.515 4.117,-2.272 7.633,-2.272 h 27.83 c 0.571,0 1,0.157 1.287,0.472 0.39999,0.372 0.6,0.771 0.6,1.201 v 4.501 z"
   id="path3127" /><path
   d="m 346.32585,80.60024 c 0,0.458 -0.15801,0.886 -0.47301,1.287 -0.314,0.343 -0.71499,0.514 -1.199,0.514 h -4.031 c -0.602,0 -1.088,-0.328 -1.459,-0.986 -0.658,-0.8 -1.215,-1.629 -1.672,-2.487 -0.801,-1.601 -1.4,-2.401 -1.801,-2.401 -0.201,0 -0.357,0.128 -0.473,0.386 -1.771,2.144 -3.759,3.731 -5.959,4.76 -2.288,1.029 -4.875,1.544 -7.762,1.544 -4.488,0 -8.104,-1.515 -10.849,-4.545 -2.716,-2.973 -4.074,-6.704 -4.074,-11.192 v -37.822 c 0,-2.887 1,-5.274 3.002,-7.161 1.887,-1.829 4.23,-2.744 7.033,-2.744 h 18.139 c 2.602,0 4.744,0.672 6.432,2.015 1.77301,1.516 2.65801,3.459 2.65801,5.832 v 4.889 c 0,0.4 -0.15601,0.843 -0.47101,1.329 -0.37299,0.315 -0.814,0.472 -1.32999,0.472 h -6.561 c -0.486,0 -0.887,-0.157 -1.201,-0.472 -0.31401,-0.314 -0.471,-0.757 -0.471,-1.329 v -3.087 c 0,-0.429 -0.20101,-0.872 -0.602,-1.33 -0.514,-0.314 -0.957,-0.472 -1.329,-0.472 h -9.777 c -2.487,0 -4.074,0.643 -4.76,1.93 -0.229,0.229 -0.429,0.744 -0.601,1.544 0,0.257 -0.021,0.586 -0.064,0.986 -0.043,0.401 -0.064,0.83 -0.064,1.287 v 33.534 c 0,1.944 1,3.488 3.00099,4.631 2.086,1.115 4.074,1.672 5.96,1.672 0.857,0 1.93,-0.114 3.216,-0.343 1.4,-0.285 2.602,-0.686 3.602,-1.201 1.145,-0.486 2.059,-1.115 2.744,-1.887 0.77301,-0.8 1.158,-1.758 1.158,-2.873 v -8.705 c 0,-0.371 -0.156,-0.772 -0.471,-1.201 -0.28699,-0.314 -0.71499,-0.472 -1.28699,-0.472 h -8.62 c -0.457,0 -0.88601,-0.2 -1.286,-0.601 -0.315,-0.457 -0.472,-0.9 -0.472,-1.329 v -4.417 c 0,-0.314 0.156,-0.714 0.472,-1.201 0.48599,-0.314 0.915,-0.472 1.286,-0.472 h 18.612 c 1.199,0 1.801,0.601 1.801,1.801 v 30.317 z"
   id="path3129" /><path
   d="m 394.23984,80.47124 c 0,0.429 -0.158,0.873 -0.473,1.33 -0.4,0.4 -0.844,0.6 -1.32799,0.6 h -6.43401 c -0.457,0 -0.9,-0.2 -1.32799,-0.6 -0.316,-0.343 -0.47301,-0.743 -0.47301,-1.201 v -25.644 c 0,-0.457 -0.156,-0.9 -0.471,-1.329 -0.31599,-0.314 -0.71499,-0.472 -1.201,-0.472 h -16.209 c -1.201,0 -1.801,0.558 -1.801,1.672 v 25.9 c 0,0.458 -0.158,0.844 -0.473,1.158 -0.314,0.343 -0.758,0.514 -1.328,0.514 h -6.434 c -0.572,0 -1,-0.171 -1.285,-0.514 -0.344,-0.457 -0.516,-0.843 -0.516,-1.158 v -59.091 c 0,-0.4 0.172,-0.829 0.516,-1.287 0.256,-0.4 0.643,-0.6 1.156,-0.6 h 6.689 c 0.516,0 0.916,0.157 1.201,0.472 0.31401,0.315 0.473,0.715 0.473,1.201 v 19.811 c 0,0.372 0.15601,0.801 0.471,1.287 0.43001,0.401 0.871,0.601 1.33,0.601 h 16.123 c 0.344,0 0.771,-0.157 1.287,-0.472 0.314,-0.4 0.471,-0.8 0.471,-1.201 v -20.025 c 0,-0.486 0.156,-0.886 0.473,-1.201 0.314,-0.314 0.756,-0.472 1.328,-0.472 h 6.434 c 0.6,0 1.043,0.157 1.328,0.472 0.314,0.429 0.473,0.829 0.473,1.201 v 59.048 z"
   id="path3131" /><path
   d="m 437.13484,80.60024 c 0,0.458 -0.156,0.886 -0.471,1.287 -0.314,0.343 -0.715,0.514 -1.201,0.514 h -26.244 c -1.199,0 -1.801,-0.6 -1.801,-1.801 v -6.818 c 0,-0.772 0.486,-1.201 1.459,-1.286 l 7.84801,-0.858 c 0.48399,0 0.72899,-0.2 0.72899,-0.6 v -41.51 c 0,-0.314 -0.158,-0.601 -0.473,-0.857 -0.656,-0.4 -1.21499,-0.671 -1.672,-0.815 -0.371,-0.171 -0.68,-0.336 -0.922,-0.493 -0.242,-0.157 -0.449,-0.279 -0.621,-0.365 -0.314,-0.257 -0.473,-0.528 -0.473,-0.814 v -4.76 c 0,-0.429 0.199,-0.829 0.602,-1.201 0.256,-0.314 0.643,-0.472 1.156,-0.472 h 14.324 c 0.6,0 1.043,0.157 1.328,0.472 0.4,0.4 0.602,0.8 0.602,1.201 v 4.76 c 0,0.229 -0.158,0.5 -0.473,0.814 -0.201,0.086 -0.422,0.208 -0.664,0.365 -0.244,0.157 -0.537,0.322 -0.879,0.493 -0.172,0.058 -0.701,0.329 -1.588,0.815 -0.4,0.229 -0.6,0.514 -0.6,0.857 v 41.51 c 0,0.4 0.199,0.6 0.6,0.6 l 8.02,0.729 c 0.943,0.144 1.414,0.615 1.414,1.415 z"
   id="path3133" /><path
   d="m 483.93484,66.87724 c 0,4.774 -1.158,8.548 -3.475,11.321 -2.287,2.802 -5.617,4.202 -9.99,4.202 h -12.908 c -4.459,0 -7.805,-1.357 -10.035,-4.074 -2.229,-2.601 -3.344,-6.417 -3.344,-11.449 v -4.203 c 0,-0.628 0.129,-1.143 0.387,-1.543 0.17,-0.314 0.686,-0.472 1.543,-0.472 h 6.303 c 0.629,0 1.072,0.2 1.33,0.6 0.314,0.458 0.473,0.929 0.473,1.415 v 4.203 c 0,3.66 1.758,5.489 5.273,5.489 h 9.049 c 1.742,0 3.05901,-0.443 3.945,-1.329 0.943,-0.944 1.414,-2.33 1.414,-4.16 v -37.479 c 0,-1.201 -0.586,-1.801 -1.758,-1.801 h -12.779 c -0.572,0 -1.016,-0.157 -1.32799,-0.472 -0.316,-0.486 -0.47301,-0.886 -0.47301,-1.201 v -4.502 c 0,-0.4 0.19901,-0.8 0.60001,-1.201 0.25799,-0.314 0.701,-0.472 1.32999,-0.472 h 22.64301 c 1.199,0 1.801,0.557 1.801,1.672 v 45.456 z"
   id="path3135" /><path
   d="m 531.88985,78.92724 c 0.543,0.744 0.81399,1.458 0.81399,2.144 0,0.886 -0.82799,1.329 -2.486,1.329 h -6.34799 c -0.885,0 -1.672,-0.557 -2.35701,-1.672 l -13.24999,-22.556 c -0.287,-0.4 -0.645,-0.6 -1.072,-0.6 -0.31401,0 -0.602,0.2 -0.85701,0.6 l -3.346,4.502 c -0.543,0.858 -0.814,1.744 -0.814,2.659 v 15.395 c 0,0.487 -0.201,0.873 -0.6,1.158 -0.344,0.343 -0.744,0.514 -1.201,0.514 h -5.617 c -0.572,0 -1.002,-0.171 -1.287,-0.514 -0.344,-0.457 -0.514,-0.843 -0.514,-1.158 v -59.091 c 0,-0.4 0.17,-0.829 0.514,-1.287 0.258,-0.4 0.643,-0.6 1.158,-0.6 h 5.875 c 0.484,0 0.885,0.157 1.199,0.472 0.314,0.315 0.473,0.715 0.473,1.201 v 24.571 c 0,0.458 0.314,0.729 0.943,0.814 0.4,0 0.844,-0.271 1.33,-0.814 l 19.082,-24.829 c 0,-0.057 0.021,-0.093 0.064,-0.107 0.043,-0.014 0.064,-0.064 0.064,-0.15 0.627,-0.772 1.301,-1.158 2.016,-1.158 h 4.545 c 1.65801,0 2.486,0.429 2.486,1.286 0,0.601 -0.271,1.287 -0.814,2.059 l -17.539,23.713 c -0.17,0.171 -0.256,0.372 -0.256,0.601 0,0.029 0.086,0.186 0.256,0.472 0,0.085 0,0.136 0,0.15 0,0.015 0,0.05 0,0.107 z"
   id="path3137" /><path
   d="m 581.47585,77.38324 c 0,1.43 -0.471,2.616 -1.414,3.559 -1.115,0.973 -2.316,1.458 -3.602,1.458 h -32.934 c -0.572,0 -1.002,-0.171 -1.287,-0.514 -0.344,-0.457 -0.514,-0.843 -0.514,-1.158 v -59.091 c 0,-0.4 0.17,-0.829 0.514,-1.287 0.258,-0.4 0.643,-0.6 1.158,-0.6 h 6.689 c 0.514,0 0.914,0.157 1.201,0.472 0.314,0.315 0.471,0.715 0.471,1.201 v 49.014 c 0,0.401 0.158,0.844 0.473,1.33 0.428,0.4 0.871,0.6 1.328,0.6 h 16.125 c 0.342,0 0.771,-0.157 1.285,-0.472 0.314,-0.457 0.473,-0.857 0.473,-1.201 v -6.347 c 0,-0.457 0.15599,-0.814 0.471,-1.072 0.42999,-0.4 0.873,-0.601 1.33,-0.601 h 6.432 c 0.486,0 0.93,0.201 1.33,0.601 0.314,0.315 0.471,0.672 0.471,1.072 z"
   id="path3139" /><path
   d="m 628.53285,80.72824 c 0,0.372 -0.156,0.758 -0.471,1.158 -0.314,0.343 -0.715,0.514 -1.201,0.514 h -5.961 c -0.543,0 -0.986,-0.171 -1.328,-0.514 -0.40201,-0.4 -0.602,-0.786 -0.602,-1.158 v -38.979 c 0,-0.2 -0.186,-0.357 -0.557,-0.472 -0.34401,0 -0.629,0.158 -0.857,0.472 l -6.904,14.537 c -0.258,0.801 -0.943,1.201 -2.059,1.201 -0.943,0 -1.572,-0.4 -1.887,-1.201 l -6.947,-14.537 c -0.199,-0.314 -0.471,-0.472 -0.814,-0.472 -0.4,0 -0.6,0.158 -0.6,0.472 v 38.979 c 0,0.429 -0.201,0.815 -0.602,1.158 -0.314,0.343 -0.744,0.514 -1.285,0.514 h -5.875 c -0.572,0 -1.002,-0.171 -1.287,-0.514 -0.344,-0.457 -0.514,-0.843 -0.514,-1.158 v -59.091 c 0,-0.4 0.17,-0.829 0.514,-1.287 0.258,-0.4 0.643,-0.6 1.158,-0.6 h 5.402 c 1,0 1.758,0.472 2.273,1.415 l 9.52,22.427 c 0.113,0.4 0.43,0.6 0.943,0.6 0.6,0 0.957,-0.2 1.072,-0.6 l 9.562,-22.427 c 0.457,-0.943 1.215,-1.415 2.273,-1.415 h 5.359 c 0.514,0 0.914,0.2 1.201,0.6 0.314,0.429 0.471,0.858 0.471,1.287 v 59.091 z"
   id="path3141" /><path
   d="m 58.971845,164.72824 c 0,0.372 -0.157,0.758 -0.472,1.158 -0.315,0.343 -0.715,0.515 -1.201,0.515 h -5.832 c -0.515,0 -0.915,-0.172 -1.201,-0.515 -0.315,-0.314 -0.472,-0.743 -0.472,-1.287 0,-0.257 -0.043,-0.456 -0.128,-0.6 0,-0.4 -0.043,-0.644 -0.129,-0.729 l -19.211,-33.877 c -0.257,-0.4 -0.572,-0.6 -0.943,-0.6 -0.629,0 -0.943,0.2 -0.943,0.6 v 35.335 c 0,0.458 -0.158,0.844 -0.472,1.158 -0.343,0.343 -0.787,0.515 -1.33,0.515 h -5.617 c -0.572,0 -1.001,-0.172 -1.287,-0.515 -0.343,-0.457 -0.515,-0.843 -0.515,-1.158 v -59.091 c 0,-0.4 0.172,-0.829 0.515,-1.287 0.257,-0.4 0.643,-0.6 1.158,-0.6 h 5.875 c 0.486,0 0.886,0.157 1.201,0.472 0.314,0.315 0.472,0.715 0.472,1.201 0,0.229 0.043,0.458 0.128,0.686 0,0.315 0.028,0.557 0.086,0.729 l 19.211,33.877 c 0.257,0.4 0.615,0.601 1.072,0.601 0.571,0 0.857,-0.2 0.857,-0.601 v -35.292 c 0,-0.486 0.157,-0.886 0.472,-1.201 0.257,-0.314 0.657,-0.472 1.201,-0.472 h 5.704 c 0.6,0 1.043,0.2 1.329,0.6 0.314,0.429 0.472,0.858 0.472,1.287 z"
   id="path3143" /><path
   d="m 106.88585,138.09924 c 0,4.117 -0.2,7.862 -0.6,11.235 -0.487,3.46 -1.358,6.476 -2.616,9.048 -1.344,2.773 -3.374,4.918 -6.089005,6.433 -2.773,1.602 -6.347,2.401 -10.721,2.401 -4.346,0 -7.89,-0.8 -10.635,-2.401 -2.716,-1.63 -4.703,-3.816 -5.96,-6.561 -1.315,-2.516 -2.159,-5.46 -2.53,-8.834 -0.401,-3.745 -0.601,-7.519 -0.601,-11.321 0,-3.888 0.443,-7.99 1.33,-12.307 0.4,-2.344 1.115,-4.917 2.144,-7.719 1,-2.687 2.23,-5.045 3.688,-7.076 1.458,-2.144 3.259,-3.887 5.403,-5.231 2.029,-1.343 4.417,-2.015 7.161,-2.015 2.716,0 5.131,0.629 7.247,1.887 2.258,1.487 4.131,3.273 5.618,5.36 1.543005,2.288 2.772005,4.646 3.688005,7.076 0.943,2.573 1.657,5.146 2.144,7.719 0.885,4.087 1.329,8.189 1.329,12.306 z m -10.035005,0.343 c 0,-2.374 -0.115,-4.789 -0.343,-7.248 -0.229,-2.401 -0.672,-5.189 -1.329,-8.362 -0.715,-2.973 -1.744,-5.36 -3.087,-7.161 -1.401,-2 -3.146,-3.001 -5.232,-3.001 -2.058,0 -3.773,1.001 -5.146,3.001 -1.229,1.744 -2.23,4.088 -3.002,7.033 -0.715,3.374 -1.101,6.161 -1.158,8.362 -0.257,2.63 -0.386,5.089 -0.386,7.376 0,1.516 0.021,2.888 0.064,4.116 0.043,1.229 0.107,2.373 0.193,3.431 0.229,2.173 0.629,4.031 1.201,5.575 0.743,1.829 1.729,3.188 2.959,4.073 1.373,1.029 3.13,1.544 5.274,1.544 2.201,0 4.031,-0.515 5.489,-1.544 1.287,-0.972 2.316,-2.401 3.088,-4.288 0.486,-1.372 0.886,-3.244 1.201,-5.617 0.143,-2.23 0.214,-4.66 0.214,-7.29 z"
   id="path3145" /><path
   d="m 154.79884,122.70424 c 0,7.176 -1.516,12.622 -4.545,16.339 -2.974,3.745 -7.97599,5.617 -15.009,5.617 h -5.017 c -1.201,0 -1.80099,0.601 -1.80099,1.801 v 18.268 c 0,0.458 -0.15801,0.844 -0.472,1.158 -0.315,0.343 -0.758,0.515 -1.33,0.515 h -6.432 c -0.572,0 -1.001,-0.172 -1.287,-0.515 -0.34301,-0.457 -0.515,-0.843 -0.515,-1.158 v -51.33 c 0,-1.201 -0.51501,-1.801 -1.54301,-1.801 h -0.129 c -1.115,0 -1.672,-0.558 -1.672,-1.672 v -4.502 c 0,-0.4 0.2,-0.8 0.601,-1.201 0.314,-0.314 0.757,-0.472 1.329,-0.472 h 21.698 c 2.63,0 4.86,0.514 6.689,1.543 2.001,1.058 3.716,2.487 5.146,4.288 1.4,1.83 2.472,3.859 3.216,6.089 0.715,2.23 1.073,4.575 1.073,7.033 z m -10.034,1.201 c 0,-1.314 -0.158,-2.873 -0.472,-4.674 -0.343,-1.4 -0.901,-2.672 -1.672,-3.816 -0.772,-1.229 -1.758,-2.144 -2.959,-2.744 -1.258,-0.714 -2.773,-1.072 -4.545,-1.072 h -4.76 c -0.401,0 -0.844,0.157 -1.33,0.472 -0.4,0.458 -0.59999,0.9 -0.59999,1.33 v 21.483 c 0,0.343 0.15699,0.787 0.47199,1.33 0.343,0.315 0.786,0.471 1.329,0.471 h 4.889 c 1.515,0 2.873,-0.4 4.074,-1.201 1.172,-0.743 2.201,-1.787 3.087,-3.13 0.772,-1.229 1.4,-2.616 1.887,-4.16 0.4,-1.459 0.6,-2.888 0.6,-4.289 z"
   id="path3147" /><path
   d="m 202.71285,164.60024 c -0.14401,1.201 -0.94301,1.802 -2.40101,1.802 h -21.227 c -2.258,0 -4.331,-0.529 -6.218,-1.587 -2.116,-1.115 -3.816,-2.501 -5.103,-4.159 -1.458,-1.687 -2.616,-3.674 -3.473,-5.961 -0.887,-2.315 -1.33,-4.503 -1.33,-6.561 v -29.589 c 0,-2.601 0.558,-4.917 1.672,-6.947 1.029,-1.801 2.544,-3.345 4.545,-4.631 1.772,-1.057 3.845,-1.901 6.218,-2.53 2.315,-0.457 4.745,-0.686 7.29,-0.686 2.573,0 5.031,0.229 7.376,0.686 2.344,0.486 4.488,1.329 6.432,2.53 1.743,1.115 3.259,2.659 4.545,4.631 1.115,2.03 1.672,4.346 1.672,6.947 v 19.211 c 0,0.943 -0.029,1.83 -0.086,2.659 -0.058,0.829 -0.1,1.572 -0.128,2.229 -0.315,1.572 -0.6,2.759 -0.857,3.56 -0.257,0.543 -0.515,1.107 -0.772,1.693 -0.257,0.586 -0.558,1.18 -0.9,1.779 -0.372,0.544 -0.793,1.145 -1.265,1.802 -0.472,0.657 -0.965,1.372 -1.479,2.144 -0.086,0.086 -0.15,0.15 -0.193,0.193 -0.043,0.043 -0.093,0.093 -0.15,0.15 -0.4,0.514 -0.6,0.915 -0.6,1.2 0,0.229 0.043,0.386 0.128,0.472 0,0.144 0.114,0.386 0.343,0.729 l 5.231,6.561 0.129,0.129 c 0.401,0.629 0.601,1.144 0.60101,1.544 z m -10.034,-16.724 v -29.332 c 0,-2.144 -1.072,-3.816 -3.216,-5.017 -2.087,-1.287 -4.274,-1.93 -6.56101,-1.93 -2.315,0 -4.502,0.643 -6.561,1.93 -2.23,1.201 -3.345,2.873 -3.345,5.017 v 29.589 c 0,2.03 0.44301,3.902 1.329,5.617 0.8,1.744 2.115,2.616 3.945,2.616 h 6.089 c 0.572,0 0.929,-0.357 1.072,-1.072 0,-0.429 -0.086,-0.786 -0.257,-1.072 l -6.561,-9.434 c -0.315,-0.314 -0.472,-0.758 -0.472,-1.33 0,-0.515 0.243,-0.943 0.729,-1.286 0.4,-0.314 0.958,-0.472 1.672,-0.472 h 3.816 c 0.543,0 0.972,0.114 1.287,0.343 0.37101,0.229 0.815,0.701 1.329,1.415 l 3.817,5.274 c 0.40001,0.401 0.757,0.601 1.072,0.601 0.54401,0.001 0.81601,-0.484 0.81601,-1.457 z"
   id="path3149" /><path
   d="m 250.62684,164.60024 c -0.144,1.201 -0.943,1.802 -2.401,1.802 h -6.432 c -0.171,0 -0.486,-0.129 -0.943,-0.387 -0.487,-0.199 -0.93,-0.671 -1.33,-1.415 l -15.609,-25.3 c -0.315,-0.714 -0.472,-1.314 -0.472,-1.801 v -6.09 c 0,-1.344 0.714,-2.016 2.144,-2.016 h 7.504 c 1.172,0 2.172,-0.515 3.001,-1.543 0.772,-1.086 1.158,-2.129 1.158,-3.131 v -11.32 c 0,-0.4 -0.158,-0.843 -0.472,-1.33 -0.515,-0.314 -0.916,-0.472 -1.201,-0.472 h -12.865 c -0.458,0 -0.9,0.2 -1.329,0.6 -0.315,0.572 -0.472,1.015 -0.472,1.33 v 51.201 c 0,0.458 -0.158,0.844 -0.472,1.158 -0.315,0.343 -0.758,0.515 -1.33,0.515 h -6.432 c -0.572,0 -1.001,-0.172 -1.287,-0.515 -0.343,-0.457 -0.515,-0.843 -0.515,-1.158 v -59.091 c 0,-0.4 0.172,-0.829 0.515,-1.287 0.257,-0.4 0.643,-0.6 1.158,-0.6 h 30.446 c 1.629,0 2.858,0.472 3.688,1.415 0.972,1.058 1.458,2.416 1.458,4.074 v 15.48 c 0,1.659 -0.758,3.259 -2.272,4.803 -1.516,1.258 -3.703,2.759 -6.561,4.502 -2.315,1.315 -3.746,2.201 -4.288,2.659 -0.343,0.286 -0.515,0.644 -0.515,1.072 0,0.515 0.243,1.072 0.729,1.673 l 14.666,23.499 c 0.028,0.114 0.114,0.187 0.257,0.214 0.317,0.745 0.474,1.23 0.474,1.459 z"
   id="path3151" /><path
   d="m 298.53985,150.62024 c 0,2.545 -0.515,4.975 -1.54301,7.29 -1.08699,2.03 -2.559,3.773 -4.41699,5.231 -2.03,1.401 -4.17401,2.444 -6.432,3.131 -2.516,0.629 -5.06,0.943 -7.633,0.943 -3.11601,0 -5.832,-0.242 -8.147,-0.729 -2.288,-0.314 -4.317,-1.101 -6.089,-2.359 -1.715,-1.028 -3.059,-2.658 -4.031,-4.888 -0.97201,-2.115 -1.458,-4.831 -1.458,-8.148 0,-0.228 0.172,-0.657 0.51499,-1.286 0.34301,-0.399 0.72901,-0.601 1.15801,-0.601 h 6.34699 c 0.486,0 0.88601,0.158 1.20101,0.472 0.17099,0.315 0.32799,0.758 0.47199,1.33 0.11401,1.43 0.47201,2.529 1.072,3.302 0.68601,0.943 1.486,1.629 2.401,2.059 1,0.514 2.029,0.829 3.087,0.943 0.714,0.171 1.87201,0.257 3.47301,0.257 1.744,0 2.973,-0.043 3.68799,-0.129 1.37201,-0.285 2.401,-0.571 3.087,-0.857 1.086,-0.543 1.844,-1.172 2.27301,-1.887 0.62799,-0.886 0.94299,-1.958 0.94299,-3.216 0,-2.03 -0.916,-3.902 -2.745,-5.618 -1.77299,-1.657 -4.54499,-3.688 -8.31899,-6.089 -3.002,-1.801 -5.118,-3.158 -6.34701,-4.075 -1.74399,-1.314 -3.33099,-2.701 -4.76,-4.159 -1.62899,-1.687 -2.82999,-3.473 -3.60199,-5.36 -0.94301,-1.915 -1.41501,-4.102 -1.41501,-6.561 0,-2.745 0.47201,-5.131 1.41501,-7.162 1.029,-2 2.387,-3.673 4.074,-5.017 1.772,-1.286 3.80199,-2.244 6.089,-2.873 2.029,-0.542 4.488,-0.814 7.375,-0.814 2.573,0 4.846,0.229 6.818,0.686 2.287,0.543 4.117,1.344 5.489,2.401 1.601,1.058 2.873,2.53 3.816,4.417 0.886,2.059 1.33,4.36 1.33,6.904 0,0.429 -0.17201,0.872 -0.515,1.329 -0.401,0.401 -0.83,0.601 -1.287,0.601 h -5.618 c -0.458,0 -0.9,-0.2 -1.329,-0.601 -0.315,-0.314 -0.47201,-0.714 -0.47201,-1.201 0,-2.344 -0.75799,-4.059 -2.27299,-5.146 -1.543,-1.029 -3.445,-1.544 -5.703,-1.544 -2.23,0 -4.34601,0.558 -6.347,1.672 -1.887,1.201 -2.83001,2.873 -2.83001,5.017 0,2.202 0.91501,4.074 2.745,5.618 1.743,1.687 4.517,3.717 8.31901,6.089 1.25799,0.857 2.41599,1.637 3.47399,2.337 1.057,0.701 2.015,1.351 2.873,1.951 1.801,1.315 3.388,2.702 4.76,4.16 1.629,1.801 2.83,3.602 3.602,5.403 0.945,2.032 1.416,4.291 1.41601,6.777 z"
   id="path3153" /><path
   d="m 346.45485,112.06924 c 0,0.458 -0.158,0.815 -0.473,1.072 -0.371,0.4 -0.81401,0.6 -1.328,0.6 h -11.922 c -1.20101,0 -1.801,0.558 -1.801,1.672 v 49.187 c 0,0.601 -0.157,1.029 -0.472,1.287 -0.314,0.343 -0.715,0.515 -1.2,0.515 h -6.561 c -1.173,0 -1.758,-0.601 -1.758,-1.802 v -49.186 c 0,-0.457 -0.2,-0.843 -0.6,-1.158 -0.343,-0.343 -0.787,-0.515 -1.33,-0.515 h -10.506 c -1.201,0 -1.801,-0.585 -1.801,-1.758 v -6.561 c 0,-1.115 0.601,-1.672 1.801,-1.672 h 36.064 c 0.57,0 1,0.157 1.285,0.472 0.4,0.372 0.602,0.771 0.602,1.201 z"
   id="path3155" /><path
   d="m 393.89584,164.47224 c 0,0.543 -0.158,0.986 -0.473,1.329 -0.457,0.4 -0.857,0.601 -1.199,0.601 h -5.748 c -0.543,0 -0.928,-0.2 -1.156,-0.601 -0.4,-0.4 -0.602,-0.8 -0.602,-1.201 v -3.602 c 0,-0.314 -0.156,-0.472 -0.471,-0.472 -0.315,0 -0.60199,0.129 -0.857,0.386 -2.088,1.944 -4.275,3.488 -6.562,4.631 -2.516,1.115 -4.945,1.673 -7.289,1.673 -2.545,0 -4.775,-0.472 -6.689,-1.415 -1.688,-0.857 -3.188,-2.215 -4.502,-4.074 -1.115,-1.715 -1.959,-3.63 -2.531,-5.746 -0.457,-2.058 -0.686,-4.358 -0.686,-6.903 v -43.44 c 0,-0.572 0.156,-1 0.473,-1.287 0.256,-0.4 0.656,-0.6 1.199,-0.6 h 6.646 c 0.51601,0 0.873,0.157 1.072,0.472 0.4,0.372 0.602,0.771 0.602,1.201 v 43.311 c 0,2.431 0.756,4.331 2.271,5.704 1.43,1.516 3.346,2.272 5.746,2.272 3.287,0 5.875,-1.158 7.762,-3.474 1.973,-2.172 2.959,-4.945 2.959,-8.319 v -39.494 c 0,-0.4 0.199,-0.8 0.602,-1.201 0.256,-0.314 0.699,-0.472 1.328,-0.472 h 6.434 c 0.484,0 0.885,0.157 1.199,0.472 0.314,0.315 0.473,0.715 0.473,1.201 v 59.048 z"
   id="path3157" /><path
   d="m 441.63785,106.49524 -12.736,54.503 c -0.572,1.658 -1.258,2.931 -2.05901,3.816 -0.94299,1.058 -2.129,1.587 -3.559,1.587 h -5.617 c -1.459,0 -2.645,-0.529 -3.561,-1.587 -1.027,-0.943 -1.672,-2.215 -1.928,-3.816 l -10.164,-54.503 c 0,-0.057 0,-0.092 0,-0.107 0,-0.014 0,-0.064 0,-0.15 0,-0.085 0,-0.157 0,-0.214 0,-0.686 0.17201,-1.244 0.51601,-1.672 0.14299,-0.4 0.52699,-0.6 1.156,-0.6 h 6.004 c 0.658,0 1.086,0.114 1.287,0.343 0.199,0.229 0.357,0.586 0.471,1.072 l 9.092,47.856 c 0.113,0.801 0.543,1.201 1.285,1.201 0.572,0 0.973,-0.4 1.201,-1.201 l 10.377,-47.856 c 0.086,-0.343 0.287,-0.7 0.602,-1.072 0.229,-0.229 0.543,-0.343 0.943,-0.343 h 5.01799 c 0.656,0 1.143,0.2 1.457,0.6 0.229,0.372 0.344,0.801 0.344,1.287 0,0.085 0,0.157 0,0.214 0,0.058 0,0.115 0,0.171 0,0.115 -0.021,0.208 -0.064,0.279 -0.043,0.07 -0.065,0.135 -0.065,0.192 z"
   id="path3159" /><path
   d="m 489.20884,106.49524 -6.689,58.449 c -0.143,0.972 -0.658,1.458 -1.543,1.458 h -3.816 c -0.857,0 -1.416,-0.486 -1.672,-1.458 l -3.604,-13.465 c -0.342,-0.972 -1.014,-1.458 -2.016,-1.458 -1.113,0 -1.83,0.486 -2.143,1.458 l -3.945,13.465 c -0.201,0.543 -0.35899,0.857 -0.473,0.943 -0.199,0.343 -0.557,0.515 -1.072,0.515 h -4.545 c -1.002,0 -1.559,-0.486 -1.672,-1.458 l -5.574,-58.449 c 0,-0.829 0.07,-1.515 0.213,-2.058 0.229,-0.457 0.672,-0.686 1.33,-0.686 h 6.775 c 1.057,0 1.586,0.557 1.586,1.672 l 2.145,37.093 c 0,0.315 0.156,0.515 0.473,0.601 0.229,0.144 0.541,0.215 0.943,0.215 0.312,0 0.6,-0.071 0.857,-0.215 0.314,-0.172 0.471,-0.371 0.471,-0.601 l 2.273,-12.521 c 0,-0.515 0.156,-0.829 0.471,-0.943 0.344,-0.257 0.814,-0.386 1.416,-0.386 h 1.801 c 0.742,0 1.172,0.444 1.287,1.33 l 1.672,12.521 c 0.143,0.315 0.344,0.515 0.6,0.601 0.172,0.144 0.457,0.215 0.857,0.215 0.4,0 0.715,-0.071 0.943,-0.215 0.314,-0.143 0.473,-0.343 0.473,-0.601 l 4.674,-37.35 c 0,-0.429 0.156,-0.786 0.473,-1.072 0.17,-0.229 0.484,-0.343 0.943,-0.343 h 4.416 c 0.486,0 0.928,0.229 1.33,0.686 0.229,0.656 0.342,1.342 0.342,2.057 z"
   id="path3161" /><path
   d="m 536.73585,163.27024 c 0.31399,0.887 0.47299,1.444 0.47299,1.673 0,0.972 -0.51599,1.458 -1.54499,1.458 h -6.818 c -0.428,0 -0.871,-0.172 -1.328,-0.515 -0.51601,-0.2 -0.83,-0.629 -0.943,-1.287 l -8.705,-21.354 c -0.115,-0.314 -0.387,-0.472 -0.814,-0.472 -0.572,0 -0.9,0.157 -0.986,0.472 l -9.906,21.698 c -0.086,0.229 -0.4,0.543 -0.943,0.943 -0.43,0.343 -0.9,0.515 -1.416,0.515 h -4.545 c -1.344,0 -2.016,-0.486 -2.016,-1.458 0,-0.2 0.072,-0.443 0.215,-0.729 l 12.908,-28.988 c 0.229,-0.343 0.342,-0.772 0.342,-1.287 0,-0.314 -0.113,-0.8 -0.342,-1.458 l -10.85,-26.458 c -0.086,-0.257 -0.129,-0.542 -0.129,-0.857 0,-0.657 0.199,-1.058 0.6,-1.201 0.314,-0.143 0.672,-0.214 1.072,-0.214 h 5.617 c 1.145,0 1.887,0.472 2.23,1.415 l 7.891,17.667 c 0.285,0.401 0.6,0.601 0.943,0.601 0.6,0 0.957,-0.2 1.072,-0.601 l 8.619,-17.667 c 0.057,-0.229 0.285,-0.543 0.68599,-0.943 0.4,-0.314 0.88701,-0.472 1.45901,-0.472 h 5.102 c 1.115,0 1.67399,0.472 1.67399,1.415 0,0.486 -0.115,0.929 -0.344,1.329 l -11.449,25.386 c -0.172,0.515 -0.258,1.001 -0.258,1.458 0,0.4 0.086,0.83 0.258,1.286 z"
   id="path3163" /><path
   d="m 584.90785,106.49524 c -6.461,20.555 -10.006,31.448 -10.635,32.676 l -3.344,6.562 c -0.17201,0.457 -0.25801,0.943 -0.25801,1.458 v 17.753 c 0,0.972 -0.47299,1.458 -1.416,1.458 h -7.16 c -0.943,0 -1.416,-0.486 -1.416,-1.458 v -17.754 c 0,-0.486 -0.129,-0.972 -0.385,-1.458 l -3.689,-6.562 c -0.486,-0.886 -4.145,-11.778 -10.977,-32.676 -0.086,-0.257 -0.129,-0.614 -0.129,-1.072 0,-0.486 0.156,-0.886 0.471,-1.201 0.201,-0.314 0.645,-0.472 1.33,-0.472 h 5.232 c 0.742,0 1.385,0.272 1.93,0.814 0.6,0.515 1.043,1.158 1.328,1.93 l 9.049,29.116 c 0.229,0.544 0.586,0.815 1.072,0.815 0.428,0 0.742,-0.271 0.943,-0.815 l 9.691,-29.116 c 0.172,-0.743 0.57,-1.429 1.199,-2.058 0.457,-0.457 1.172,-0.686 2.145,-0.686 h 3.346 c 0.686,0 1.115,0.2 1.285,0.6 0.314,0.286 0.473,0.715 0.473,1.287 0,0.085 0,0.165 0,0.236 0,0.072 0,0.15 0,0.236 0,0.085 -0.016,0.157 -0.043,0.214 -0.028,0.059 -0.042,0.116 -0.042,0.173 z"
   id="path3165" /><path
   d="m 632.90785,165.07124 c 0,0.887 -0.473,1.33 -1.41601,1.33 h -37.00599 c -0.887,0 -1.33001,-0.486 -1.33001,-1.458 v -9.306 c 0,-0.314 0.043,-0.558 0.12901,-0.729 0.344,-0.572 0.428,-0.772 0.258,-0.601 l 26.371,-41.253 c 0.143,-0.286 0.215,-0.486 0.215,-0.601 0,-0.571 -0.271,-0.857 -0.814,-0.857 h -24.699 c -0.973,0 -1.459,-0.429 -1.459,-1.287 v -5.146 c 0,-0.943 0.443,-1.415 1.33,-1.415 h 36.277 c 0.887,0 1.33,0.472 1.33,1.415 v 6.432 c 0,0.144 -0.021,0.272 -0.064,0.386 -0.043,0.115 -0.064,0.229 -0.064,0.343 -0.145,0.372 -0.23,0.572 -0.258,0.6 l -26.459,41.982 c -0.084,0.171 -0.127,0.371 -0.127,0.6 0,0.572 0.271,0.858 0.814,0.858 h 25.557 c 0.943,0 1.416,0.429 1.416,1.286 v 7.421 z"
   id="path3167" /><path
   d="m 57.642845,240.23824 c 0,2.858 -0.986,5.289 -2.959,7.29 -1.973,1.973 -4.446,2.959 -7.418,2.959 h -16.467 c -2.859,0 -5.274,-0.986 -7.247,-2.959 -2.001,-2.001 -3.001,-4.432 -3.001,-7.29 v -41.981 c 0,-2.887 1,-5.317 3.001,-7.29 2.03,-2.086 4.445,-3.13 7.247,-3.13 h 16.467 c 2.029,0 3.988,0.557 5.875,1.672 1.658,1.144 2.93,2.702 3.816,4.674 0,0.029 0.043,0.072 0.129,0.129 0,0.058 0,0.172 0,0.343 0,0.544 -0.171,0.901 -0.515,1.072 l -6.775,6.347 c -0.429,0.372 -0.83,0.558 -1.201,0.558 -0.801,0 -1.201,-0.472 -1.201,-1.415 v -3.688 c 0,-0.429 -0.2,-0.828 -0.6,-1.2 -0.315,-0.314 -0.715,-0.472 -1.201,-0.472 h -13.336 c -1.115,0 -1.672,0.558 -1.672,1.672 v 41.296 c 0,0.457 0.157,0.844 0.472,1.157 0.286,0.344 0.686,0.515 1.201,0.515 h 13.722 c 1.115,0 1.672,-0.558 1.672,-1.672 v -29.846 c 0,-0.058 0.021,-0.136 0.064,-0.236 0.043,-0.1 0.064,-0.221 0.064,-0.364 0,-0.057 0.186,-0.3 0.557,-0.729 l 8.748,-7.761 c 0.143,-0.144 0.3,-0.215 0.472,-0.215 0.057,0 0.086,0.071 0.086,0.215 z"
   id="path3169" /><path
   d="m 104.99885,248.81424 c 0,1.115 -0.54301,1.673 -1.62901,1.673 H 69.577845 c -1.115,0 -1.672,-0.558 -1.672,-1.673 v -6.561 c 0,-1.172 0.558,-1.759 1.672,-1.759 h 13.722 c 0.486,0 0.886,-0.171 1.201,-0.515 0.314,-0.313 0.472,-0.7 0.472,-1.157 v -37.736 c 0,-0.143 -0.043,-0.257 -0.128,-0.343 -0.086,-0.086 -0.243,-0.129 -0.472,-0.129 -0.172,0 -0.308,0 -0.408,0 -0.1,0 -0.208,0 -0.321,0 0.028,-0.028 -0.172,0.129 -0.601,0.472 l -5.575,5.146 c -0.058,0.086 -0.186,0.201 -0.386,0.344 -0.343,0.371 -0.629,0.65 -0.857,0.836 -0.229,0.187 -0.372,0.308 -0.429,0.364 -0.171,0.086 -0.572,0.129 -1.201,0.129 h -5.017 c -0.458,0 -0.857,-0.157 -1.201,-0.472 -0.315,-0.343 -0.472,-0.743 -0.472,-1.201 v -5.146 c 0,-0.457 0.2,-0.857 0.601,-1.2 0.542,-0.344 1.143,-0.615 1.801,-0.815 0.972,-0.343 1.644,-0.7 2.016,-1.071 l 10.635,-9.648 c 0.285,-0.344 0.714,-0.515 1.286,-0.515 h 9.091 c 1.115,0 1.672,0.6 1.672,1.801 v 49.186 c 0,1.114 0.585,1.672 1.758,1.672 h 6.603995 c 1.086,0 1.629,0.587 1.629,1.759 v 6.559 z"
   id="path3171" /><path
   d="m 150.63984,248.38624 c 0,1.115 -0.543,1.672 -1.63,1.672 h -33.78999 c -1.115,0 -1.672,-0.557 -1.672,-1.672 v -8.319 c 0,-0.857 0.2,-1.544 0.6,-2.059 0.229,-0.485 0.7,-1.157 1.415,-2.015 1.315,-1.4 3.587,-3.674 6.818,-6.818 1.372,-1.372 2.651,-2.63 3.838,-3.773 1.186,-1.144 2.251,-2.23 3.19499,-3.26 1.743,-1.829 3.573,-3.902 5.48901,-6.218 1.74399,-2.258 3.14499,-4.444 4.20299,-6.561 1.029,-2.115 1.543,-4.26 1.543,-6.433 0,-2.086 -0.68599,-3.516 -2.058,-4.288 -1.28699,-0.8 -3.031,-1.2 -5.23199,-1.2 -2.229,0 -3.974,0.4 -5.231,1.2 -1.372,0.687 -2.058,2.116 -2.058,4.288 0,0.715 -0.115,1.315 -0.343,1.802 -0.372,0.486 -0.886,0.729 -1.543,0.729 h -6.476 c -1.086,0 -1.629,-0.601 -1.629,-1.801 v -2.401 c 0,-2.344 0.472,-4.402 1.415,-6.175 0.772,-1.716 2.044,-3.188 3.816,-4.417 1.601,-1.115 3.431,-1.915 5.489,-2.401 1.915,-0.572 4.102,-0.857 6.56099,-0.857 2.344,0 4.488,0.285 6.433,0.857 1.887,0.429 3.75901,1.229 5.61701,2.401 1.54399,1.114 2.815,2.587 3.817,4.417 0.94299,1.772 1.415,3.831 1.415,6.175 0,3.459 -0.429,6.489 -1.28701,9.091 -0.857,2.744 -2.016,5.246 -3.47399,7.504 -1.22901,1.973 -2.81601,4.003 -4.76001,6.09 -1.744,1.944 -4.06,4.245 -6.947,6.903 -1.315,1.287 -2.452,2.423 -3.409,3.409 -0.958,0.986 -1.766,1.809 -2.423,2.466 -0.943,1.087 -1.415,1.959 -1.415,2.616 0,0.486 0.229,0.729 0.686,0.729 h 21.398 c 1.086,0 1.63,0.586 1.63,1.759 v 6.56 z"
   id="path3173" /><path
   d="m 197.56684,231.23224 c 0,6.662 -1.544,11.594 -4.631,14.795 -3.03,3.259 -7.89,4.889 -14.58,4.889 -5.947,0 -10.435,-1.387 -13.465,-4.16 -2.945,-2.801 -4.417,-7.104 -4.417,-12.907 0,-1.115 0.558,-1.672 1.672,-1.672 h 6.689 c 1.115,0 1.672,0.643 1.672,1.93 0,2.658 0.628,4.445 1.887,5.359 1.344,0.973 3.33,1.458 5.961,1.458 3.03,0 5.302,-0.757 6.818,-2.272 1.601,-1.372 2.401,-3.53 2.401,-6.475 0,-2.545 -0.042,-4.203 -0.12799,-4.975 -0.315,-1.43 -0.62901,-2.387 -0.94301,-2.873 -0.429,-0.743 -1.144,-1.301 -2.144,-1.673 -0.83,-0.313 -2.187,-0.472 -4.074,-0.472 h -5.618 c -0.372,0 -0.772,-0.199 -1.201,-0.6 -0.315,-0.344 -0.472,-0.743 -0.472,-1.201 v -4.074 c 0,-0.456 0.043,-0.843 0.128,-1.157 0.229,-0.457 0.515,-0.9 0.858,-1.329 l 12.993,-13.723 c 0.4,-0.399 0.6,-1.115 0.6,-2.144 0,-0.486 -0.157,-0.886 -0.472,-1.201 -0.372,-0.314 -0.771,-0.472 -1.201,-0.472 h -21.269 c -1.087,0 -1.63,-0.601 -1.63,-1.801 v -4.417 c 0,-0.571 0.157,-1 0.472,-1.286 0.286,-0.344 0.671,-0.515 1.158,-0.515 h 31.304 c 1.086,0 1.629,0.6 1.629,1.801 v 10.163 c 0,0.457 -0.029,0.814 -0.086,1.072 0,0.257 -0.157,0.572 -0.472,0.943 l -11.492,12.649 c -0.144,0.43 -0.214,0.63 -0.214,0.601 0,0.458 0.271,0.729 0.814,0.814 2.401,0.344 4.56,0.873 6.476,1.587 1.429,0.658 2.544,1.572 3.345,2.744 0.686,1.087 1.158,2.388 1.415,3.902 0.145,1.862 0.217,4.092 0.217,6.692 z"
   id="path3175" /><path
   d="m 243.63684,237.49324 c 0,1.201 -0.543,1.802 -1.63,1.802 h -1.115 c -1.17199,0 -1.758,0.586 -1.758,1.758 v 7.762 c 0,1.115 -0.6,1.673 -1.80099,1.673 h -6.56101 c -0.543,0 -0.943,-0.157 -1.20099,-0.473 -0.315,-0.313 -0.47201,-0.714 -0.47201,-1.2 v -7.762 c 0,-0.343 -0.157,-0.771 -0.472,-1.286 -0.315,-0.314 -0.715,-0.472 -1.201,-0.472 h -19.21099 c -0.37201,0 -0.772,-0.2 -1.20101,-0.601 -0.315,-0.343 -0.47199,-0.743 -0.47199,-1.201 v -7.633 c 0,-0.886 0.085,-1.687 0.257,-2.401 0.057,-1 0.37099,-1.986 0.94299,-2.959 l 21.012,-34.862 c 0.31401,-0.687 0.743,-1.158 1.28701,-1.415 0.457,-0.258 0.815,-0.386 1.072,-0.386 h 5.403 c 1.48599,0 2.23,0.6 2.23,1.801 0,0.486 -0.115,0.93 -0.343,1.329 l -21.612,36.149 c -0.144,0.572 -0.214,0.93 -0.214,1.072 0,0.943 0.558,1.415 1.672,1.415 h 9.177 c 0.515,0 0.91499,-0.157 1.20099,-0.472 0.31401,-0.486 0.47201,-0.886 0.47201,-1.201 v -9.048 c 0,-0.515 0.157,-0.957 0.472,-1.329 0.48599,-0.314 0.886,-0.472 1.201,-0.472 h 6.561 c 1.201,0 1.80099,0.601 1.80099,1.801 v 9.048 c 0,0.486 0.15701,0.887 0.47201,1.201 0.257,0.314 0.687,0.472 1.287,0.472 h 1.115 c 0.257,0 0.644,0.157 1.158,0.472 0.31399,0.314 0.472,0.715 0.472,1.2 v 6.218 z"
   id="path3177" /><path
   d="m 290.56484,230.28924 c 0,7.119 -1.501,12.293 -4.502,15.523 -3.002,3.402 -8.219,5.104 -15.652,5.104 -3.602,0 -6.218,-0.157 -7.848,-0.472 -2.116,-0.344 -3.788,-0.972 -5.017,-1.887 -1.287,-0.858 -2.331,-2.33 -3.13,-4.417 -0.629,-1.744 -0.943,-4.331 -0.943,-7.762 0,-1.115 0.558,-1.673 1.672,-1.673 h 6.561 c 0.486,0 0.886,0.158 1.201,0.472 0.4,0.401 0.6,0.801 0.6,1.201 0,2.03 0.515,3.259 1.544,3.688 0.886,0.572 2.715,0.857 5.489,0.857 3.917,0 6.546,-0.843 7.89,-2.529 1.429,-1.687 2.144,-4.389 2.144,-8.105 0,-2.401 -0.085,-4.03 -0.257,-4.888 -0.143,-1.344 -0.5,-2.545 -1.072,-3.603 -0.601,-1.143 -1.43,-2.016 -2.487,-2.615 -0.943,-0.629 -2.373,-0.944 -4.288,-0.944 -1.001,0 -1.887,0.115 -2.659,0.344 -0.972,0.372 -1.758,0.729 -2.358,1.072 -0.972,0.429 -1.658,0.758 -2.059,0.985 -1.001,0.144 -1.629,0.215 -1.887,0.215 h -8.362 c -1.115,0 -1.672,-0.601 -1.672,-1.801 v -28.988 c 0,-1.201 0.558,-1.801 1.672,-1.801 h 33.791 c 1.086,0 1.629,0.6 1.629,1.801 v 4.417 c 0,1.2 -0.543,1.801 -1.629,1.801 h -23.757 c -1.115,0 -1.672,0.558 -1.672,1.673 v 14.193 c 0,0.4 0.271,0.601 0.815,0.601 0.571,0 1.458,-0.357 2.659,-1.072 1.229,-0.686 2.53,-1.286 3.902,-1.801 1.543,-0.4 3.173,-0.601 4.888,-0.601 1.944,0 3.587,0.157 4.932,0.472 1.343,0.229 2.887,1.029 4.631,2.401 1.4,1.229 2.672,3.331 3.816,6.304 0.943,3.002 1.415,6.947 1.415,11.835 z"
   id="path3179" /><path
   d="m 336.63484,229.73224 c 0,2.658 -0.385,5.16 -1.158,7.504 -0.914,2.487 -2.115,4.717 -3.602,6.689 -1.486,2.002 -3.43,3.603 -5.832,4.803 -2.315,1.173 -4.903,1.759 -7.761,1.759 -3.002,0 -5.546,-0.558 -7.633,-1.673 -2.459,-1.086 -4.446,-2.63 -5.961,-4.631 -1.744,-2.001 -3.016,-4.23 -3.816,-6.69 -0.886,-2.229 -1.329,-4.816 -1.329,-7.761 0,-4.517 0.757,-9.049 2.272,-13.594 1.4,-4.23 3.23,-8.491 5.489,-12.779 2.087,-3.573 3.959,-6.589 5.618,-9.048 1.658,-2.43 2.772,-3.988 3.345,-4.674 0.601,-0.715 1.072,-1.187 1.415,-1.415 0.457,-0.258 0.772,-0.386 0.943,-0.386 h 5.747 c 1.51601,0 2.27301,0.6 2.27301,1.801 0,0.429 -0.129,0.872 -0.387,1.329 -1.801,2.859 -3.366,5.425 -4.69601,7.697 -1.329,2.272 -2.50799,4.238 -3.538,5.896 -0.943,1.688 -1.666,3.002 -2.166,3.945 -0.5,0.943 -0.808,1.501 -0.922,1.672 0,0.086 0,0.136 0,0.15 0,0.014 0,0.036 0,0.064 0,0.086 0,0.136 0,0.149 0,0.016 0,0.051 0,0.107 0,0.229 0.2,0.344 0.6,0.344 0.286,-0.058 0.66501,-0.136 1.137,-0.236 0.472,-0.1 1.05,-0.221 1.736,-0.364 1.373,-0.229 2.759,-0.344 4.16,-0.344 2.74501,0 5.08801,0.515 7.032,1.544 1.803,0.887 3.274,2.288 4.418,4.203 0.971,1.743 1.65801,3.759 2.05901,6.046 0.37099,1.919 0.557,4.549 0.55699,7.893 z m -9.991,0 c 0,-1.716 -0.158,-3.345 -0.473,-4.889 -0.457,-1.887 -0.986,-3.402 -1.586,-4.546 -0.401,-0.628 -1.273,-1.057 -2.616,-1.286 -1.287,-0.258 -2.559,-0.386 -3.817,-0.386 -1.315,0 -2.63,0.128 -3.945,0.386 -1.401,0.229 -2.273,0.658 -2.616,1.286 -0.772,1.658 -1.28699,3.174 -1.54399,4.546 -0.315,1.544 -0.472,3.173 -0.472,4.889 0,3.001 0.671,5.546 2.016,7.633 1.4,2.087 3.587,3.13 6.561,3.13 3.02999,0 5.174,-1.043 6.433,-3.13 1.37099,-1.887 2.059,-4.431 2.05899,-7.633 z"
   id="path3181" /><path
   d="m 383.56184,198.42924 c 0,1.314 -0.357,2.787 -1.072,4.416 -0.43,0.858 -0.89999,1.766 -1.416,2.724 -0.514,0.958 -1.072,2.037 -1.672,3.237 -0.115,0.144 -0.215,0.294 -0.301,0.45 -0.086,0.157 -0.18599,0.294 -0.29899,0.407 l -12.393,22.899 c -1.029,1.829 -1.545,3.702 -1.545,5.617 v 11.063 c 0,0.343 -0.17201,0.744 -0.514,1.201 -0.287,0.314 -0.67201,0.472 -1.15801,0.472 h -7.547 c -1.115,0 -1.674,-0.558 -1.674,-1.673 v -11.062 c 0,-1.601 0.043,-2.687 0.12901,-3.259 0,-0.857 0.242,-1.644 0.73,-2.358 l 16.209,-30.061 v -0.129 c 0.314,-0.485 0.471,-1.243 0.471,-2.272 0,-1.2 -0.586,-1.801 -1.758,-1.801 h -11.578 c -1.115,0 -1.672,0.601 -1.672,1.801 v 3.945 c 0,1.173 -0.602,1.758 -1.801,1.758 h -6.562 c -1.113,0 -1.672,-0.585 -1.672,-1.758 v -13.979 c 0,-0.429 0.158,-0.829 0.473,-1.201 0.428,-0.399 0.828,-0.6 1.199,-0.6 h 33.535 c 0.428,0 0.87099,0.2 1.32799,0.6 0.371,0.315 0.55901,0.716 0.55901,1.201 v 8.362 z"
   id="path3183" /><path
   d="m 429.63085,230.20424 c 0,2.544 -0.156,4.702 -0.471,6.475 -0.344,2.087 -1.131,4.231 -2.359,6.433 -1.229,2.173 -3.145,3.96 -5.746,5.36 -2.516,1.344 -5.861,2.016 -10.035,2.016 -4.05901,0 -7.361,-0.672 -9.904,-2.016 -2.602,-1.372 -4.504,-3.159 -5.703,-5.36 -1.23,-2.173 -2.031,-4.316 -2.402,-6.433 -0.314,-2.001 -0.471,-4.159 -0.471,-6.475 0,-2.001 0.156,-3.674 0.471,-5.018 0.486,-1.687 0.93,-2.83 1.33,-3.431 0.428,-0.914 0.943,-1.672 1.543,-2.272 0.285,-0.285 0.607,-0.579 0.965,-0.879 0.357,-0.301 0.707,-0.607 1.051,-0.922 1.115,-0.858 1.672,-1.615 1.672,-2.273 0,-0.571 -0.4,-1.329 -1.199,-2.272 -1.088,-1.143 -1.916,-2.372 -2.488,-3.688 -0.543,-1.201 -0.814,-3.145 -0.814,-5.832 0,-5.774 1.22899,-9.834 3.68799,-12.179 2.488,-2.401 6.57601,-3.602 12.26401,-3.602 5.689,0 9.834,1.157 12.43799,3.473 2.457,2.259 3.688,6.204 3.688,11.836 0,2.572 -0.273,4.475 -0.814,5.703 -0.602,1.315 -1.402,2.545 -2.402,3.688 -0.887,1.115 -1.33,1.959 -1.33,2.53 0,0.601 0.55901,1.358 1.674,2.272 0.342,0.344 0.691,0.673 1.051,0.986 0.355,0.315 0.691,0.615 1.008,0.9 0.713,0.943 1.229,1.744 1.543,2.401 0.43,0.744 0.857,1.93 1.287,3.56 0.308,1.203 0.465,2.874 0.46501,5.019 z m -9.991,0 c 0,-3.26 -0.688,-5.875 -2.05901,-7.848 -1.40199,-2.001 -3.588,-3.002 -6.562,-3.002 -3,0 -5.14499,1.001 -6.432,3.002 -1.344,1.801 -2.016,4.417 -2.016,7.848 0,3.316 0.672,5.86 2.016,7.633 1.287,1.772 3.432,2.658 6.432,2.658 3.08801,0 5.275,-0.886 6.562,-2.658 1.37201,-1.773 2.05901,-4.317 2.05901,-7.633 z m -2.531,-27.059 c 0,-2.63 -0.428,-4.503 -1.287,-5.618 -0.799,-1.114 -2.4,-1.672 -4.803,-1.672 -2.314,0 -3.859,0.629 -4.631,1.887 -0.887,1.144 -1.328,3.103 -1.328,5.875 0,2.773 0.441,4.717 1.328,5.832 0.801,1.344 2.344,2.016 4.631,2.016 2.344,0 3.945,-0.715 4.803,-2.145 0.859,-1.286 1.287,-3.345 1.287,-6.175 z"
   id="path3185" /><path
   d="m 476.13085,208.72024 c 0,3.66 -0.27301,6.848 -0.81401,9.562 -0.744,3.06 -1.85899,5.719 -3.346,7.977 l -15.051,22.556 c -0.459,0.629 -0.81599,1.029 -1.072,1.2 -0.28699,0.315 -0.672,0.473 -1.158,0.473 h -8.14799 c -1.486,0 -2.229,-0.515 -2.229,-1.544 0,-0.743 0.271,-1.458 0.814,-2.145 l 17.539,-25.3 c 1.113,-1.572 1.986,-3.517 2.615,-5.832 0.572,-2.287 0.857,-4.603 0.857,-6.947 0,-3.716 -0.557,-6.417 -1.672,-8.104 -1.23,-1.829 -3.545,-2.744 -6.947,-2.744 -3.088,0 -5.275,1.001 -6.561,3.002 -1.258,1.972 -1.887,4.588 -1.887,7.847 0,2.059 0.242,3.688 0.729,4.889 0.514,1.315 1.229,2.229 2.145,2.744 0.971,0.63 1.957,1.001 2.959,1.115 1.258,0.229 2.658,0.343 4.201,0.343 0.457,0 0.688,0.201 0.688,0.601 0,0.144 -0.043,0.215 -0.129,0.215 -0.086,0.371 -0.314,0.929 -0.688,1.672 -0.771,1.201 -1.371,2.087 -1.801,2.659 -0.715,1.058 -1.586,1.93 -2.615,2.615 -0.943,0.801 -2.016,1.201 -3.217,1.201 -2.344,0 -4.373,-0.558 -6.088,-1.673 -1.631,-1.029 -2.902,-2.43 -3.816,-4.202 -0.943,-1.801 -1.588,-3.702 -1.93,-5.703 -0.316,-1.887 -0.473,-4.045 -0.473,-6.476 0,-6.546 1.473,-11.635 4.418,-15.266 3.029,-3.745 7.719,-5.617 14.064,-5.617 6.66,0 11.479,1.715 14.451,5.146 2.775,3.371 4.162,8.617 4.162,15.736 z"
   id="path3187" /><path
   d="m 514.88284,192.85324 c 0,1.458 -0.559,2.659 -1.674,3.603 -1.172,0.943 -2.55899,1.415 -4.15799,1.415 h -3.689 c -1.60001,0 -3,-0.472 -4.20101,-1.415 -1.115,-0.972 -1.672,-2.173 -1.672,-3.603 0,-1.372 0.557,-2.558 1.672,-3.559 1.229,-0.972 2.62901,-1.458 4.20101,-1.458 h 3.689 c 1.57,0 2.959,0.486 4.15799,1.458 1.115,0.944 1.674,2.131 1.674,3.559 z m 24.013,54.546 c 0.086,0.229 0.12901,0.543 0.12901,0.943 0,1.43 -0.91601,2.145 -2.746,2.145 h -4.54501 c -1.37299,0 -2.172,-0.357 -2.4,-1.072 l -1.67399,-7.505 c -0.143,-0.943 -0.742,-1.415 -1.801,-1.415 h -13.936 c -0.572,0 -0.973,0.115 -1.201,0.344 -0.287,0.229 -0.486,0.586 -0.6,1.071 l -1.803,7.505 c 0,0.343 -0.229,0.629 -0.686,0.857 -0.314,0.144 -0.801,0.215 -1.457,0.215 h -4.16 c -0.629,0 -1.145,-0.114 -1.543,-0.344 -0.488,-0.343 -0.73,-0.943 -0.73,-1.801 0,-0.057 0,-0.107 0,-0.15 0,-0.043 0,-0.106 0,-0.192 0,-0.172 0,-0.293 0,-0.365 0,-0.07 0,-0.149 0,-0.235 l 10.506,-44.168 c 0.201,-0.943 0.801,-1.658 1.803,-2.145 0.771,-0.457 1.52699,-0.686 2.271,-0.686 h 9.863 c 0.943,0 1.744,0.114 2.4,0.343 0.629,0.229 1.072,0.829 1.32999,1.801 z m -13.508,-15.652 -5.01799,-22.298 c -0.229,-0.715 -0.701,-1.072 -1.41601,-1.072 -0.77099,0 -1.21499,0.357 -1.32799,1.072 l -5.232,22.298 c 0,0.086 0,0.137 0,0.15 0,0.015 0,0.051 0,0.107 v 0.129 c 0,0.857 0.602,1.286 1.80099,1.286 h 9.43401 c 1.172,0.001 1.759,-0.557 1.75899,-1.672 z m 13.85,-38.894 c 0,1.458 -0.6,2.659 -1.80099,3.603 -1.086,0.943 -2.43001,1.415 -4.03101,1.415 h -3.73 c -1.629,0 -2.97299,-0.472 -4.03099,-1.415 -1.19901,-0.943 -1.80101,-2.145 -1.80101,-3.603 0,-1.429 0.602,-2.615 1.80101,-3.559 1.086,-0.972 2.42999,-1.458 4.03099,-1.458 h 3.73 c 1.572,0 2.91601,0.486 4.03101,1.458 1.201,0.944 1.80099,2.131 1.80099,3.559 z"
   id="path3189" /><path
   d="m 562.79684,192.85324 c 0,1.458 -0.559,2.659 -1.674,3.603 -1.172,0.943 -2.55899,1.415 -4.158,1.415 h -3.689 c -1.6,0 -3,-0.472 -4.201,-1.415 -1.115,-0.972 -1.672,-2.173 -1.672,-3.603 0,-1.372 0.557,-2.558 1.672,-3.559 1.22901,-0.972 2.629,-1.458 4.201,-1.458 h 3.689 c 1.57001,0 2.959,0.486 4.158,1.458 1.115,0.944 1.674,2.131 1.674,3.559 z m 24.355,35.078 c 0,3.288 -0.19899,6.275 -0.6,8.963 -0.516,2.773 -1.38699,5.16 -2.615,7.161 -1.287,2.201 -3.318,3.945 -6.09,5.231 -2.658,1.286 -6.232,1.93 -10.721,1.93 -4.459,0 -8.004,-0.644 -10.635,-1.93 -2.744,-1.258 -4.732,-3.002 -5.961,-5.231 -1.285,-2.059 -2.129,-4.402 -2.529,-7.033 -0.4,-3.029 -0.6,-6.06 -0.6,-9.091 0,-3.059 0.441,-6.36 1.328,-9.905 0.486,-2.115 1.201,-4.174 2.145,-6.175 0.971,-2.145 2.201,-4.017 3.688,-5.618 1.43,-1.771 3.23,-3.201 5.404,-4.288 2.314,-1.029 4.701,-1.543 7.16,-1.543 2.486,0 4.902,0.514 7.248,1.543 2.172,1.029 4.045,2.459 5.617,4.288 1.543,1.802 2.771,3.674 3.688,5.618 0.885,1.83 1.6,3.888 2.145,6.175 0.885,3.372 1.328,6.675 1.328,9.905 z m -11.44899,10.292 c 1.287,-2.858 1.787,-6.481 1.50199,-10.87 -0.287,-4.389 -0.873,-8.055 -1.76,-11 -0.686,-2.086 -1.715,-3.83 -3.086,-5.231 -1.346,-1.429 -3.088,-2.144 -5.232,-2.144 -2.115,0 -3.832,0.715 -5.14599,2.144 -1.285,1.345 -2.28701,3.06 -3,5.146 -0.943,3.059 -1.531,6.775 -1.76,11.148 -0.22901,4.374 0.328,8.048 1.674,11.021 0.77099,1.516 1.758,2.587 2.95899,3.216 1.342,0.801 3.102,1.2 5.273,1.2 2.40201,0 4.23001,-0.399 5.48801,-1.2 1.231,-0.715 2.258,-1.858 3.088,-3.43 z m 11.44899,-45.37 c 0,1.458 -0.6,2.659 -1.801,3.603 -1.086,0.943 -2.43,1.415 -4.031,1.415 h -3.73 c -1.629,0 -2.973,-0.472 -4.03099,-1.415 -1.199,-0.943 -1.80101,-2.145 -1.80101,-3.603 0,-1.429 0.602,-2.615 1.80101,-3.559 1.086,-0.972 2.42999,-1.458 4.03099,-1.458 h 3.73 c 1.572,0 2.91601,0.486 4.031,1.458 1.202,0.944 1.801,2.131 1.801,3.559 z"
   id="path3191" /><path
   d="m 611.22384,192.85324 c 0,1.458 -0.602,2.659 -1.803,3.603 -1.086,0.943 -2.486,1.415 -4.201,1.415 h -3.561 c -1.629,0 -3.016,-0.472 -4.158,-1.415 -1.115,-0.857 -1.672,-2.059 -1.672,-3.603 0,-1.486 0.557,-2.673 1.672,-3.559 1.172,-0.972 2.559,-1.458 4.158,-1.458 h 3.561 c 1.686,0 3.088,0.486 4.201,1.458 1.202,0.944 1.803,2.131 1.803,3.559 z m 23.37,56.09 c 0,0.486 -0.15599,0.886 -0.471,1.2 -0.344,0.229 -0.744,0.344 -1.201,0.344 h -5.746 c -0.6,0 -0.986,-0.114 -1.158,-0.344 -0.4,-0.257 -0.6,-0.614 -0.6,-1.072 v -2.744 c 0,-0.314 -0.201,-0.472 -0.602,-0.472 -0.229,0 -0.471,0.114 -0.729,0.343 -2.002,1.516 -4.23,2.717 -6.689,3.603 -2.287,0.943 -4.674,1.415 -7.16,1.415 -2.65999,0 -4.889,-0.4 -6.68899,-1.201 -1.77301,-0.657 -3.275,-1.729 -4.50401,-3.216 -1.115,-1.343 -1.95899,-2.887 -2.52899,-4.631 -0.457,-1.601 -0.68601,-3.431 -0.68601,-5.489 v -34.734 c 0,-0.429 0.156,-0.785 0.471,-1.071 0.25801,-0.314 0.658,-0.472 1.201,-0.472 h 6.646 c 0.514,0 0.871,0.157 1.072,0.472 0.4,0.229 0.6,0.543 0.6,0.943 v 33.748 c 0,1.944 0.75801,3.502 2.273,4.674 1.457,1.2 3.37301,1.801 5.746,1.801 3.145,0 5.73,-0.914 7.762,-2.744 1.973,-1.887 2.959,-4.16 2.959,-6.818 v -30.789 c 0,-0.314 0.199,-0.629 0.6,-0.943 0.285,-0.229 0.729,-0.343 1.33,-0.343 h 6.432 c 1.115,0 1.672,0.429 1.672,1.286 z m 0,-56.09 c 0,1.544 -0.557,2.745 -1.672,3.603 -1.201,0.943 -2.588,1.415 -4.16,1.415 h -3.60199 c -1.572,0 -2.959,-0.472 -4.16,-1.415 -1.199,-0.943 -1.80101,-2.145 -1.80101,-3.603 0,-1.429 0.602,-2.615 1.80101,-3.559 1.23,-0.972 2.61699,-1.458 4.16,-1.458 h 3.60199 c 1.516,0 2.90201,0.486 4.16,1.458 1.115,0.887 1.672,2.073 1.672,3.559 z"
   id="path3193" />
<rect
   width="646.966"
   height="273.306"
   x="-1.6997947e-05"
   y="0"
   id="rect3195"
   style="fill:none" />
<rect
   style="fill:#ffffff;stroke-width:0.961078"
   id="rect397"
   width="50"
   height="80"
   x="121.51601"
   y="335.06262"
   inkscape:export-filename="src/characters/C_01.png"
   inkscape:export-xdpi="250"
   inkscape:export-ydpi="250" /><rect
   style="fill:#ffffff;stroke-width:0.961078"
   id="rect398"
   width="50"
   height="80"
   x="176.07213"
   y="335.06262"
   inkscape:export-filename="src/characters/D_01.png"
   inkscape:export-xdpi="250"
   inkscape:export-ydpi="250" /><rect
   style="fill:#ffffff;stroke-width:0.961078"
   id="rect399"
   width="50"
   height="80"
   x="230.60193"
   y="335.06262"
   inkscape:export-filename="src/characters/E_01.png"
   inkscape:export-xdpi="250"
   inkscape:export-ydpi="250" /><rect
   style="fill:#ffffff;stroke-width:0.961078"
   id="rect400"
   width="50"
   height="80"
   x="285.1684"
   y="335.06262"
   inkscape:export-filename="src/characters/F_01.png"
   inkscape:export-xdpi="250"
   inkscape:export-ydpi="250" /><rect
   style="fill:#ffffff;stroke-width:0.961078"
   id="rect401"
   width="50"
   height="80"
   x="339.66153"
   y="335.06262"
   inkscape:export-filename="src/characters/G_01.png"
   inkscape:export-xdpi="250"
   inkscape:export-ydpi="250" /><rect
   style="fill:#ffffff;stroke-width:0.961078"
   id="rect402"
   width="50"
   height="80"
   x="393.79938"
   y="335.06262"
   inkscape:export-filename="src/characters/H_01.png"
   inkscape:export-xdpi="250"
   inkscape:export-ydpi="250" /><rect
   style="fill:#ffffff;stroke-width:0.961078"
   id="rect403"
   width="50"
   height="80"
   x="448.72113"
   y="335.06262"
   inkscape:export-filename="src/characters/I_01.png"
   inkscape:export-xdpi="250"
   inkscape:export-ydpi="250" /><rect
   style="fill:#ffffff;stroke-width:0.961078"
   id="rect404"
   width="50"
   height="80"
   x="503.25095"
   y="335.06262"
   inkscape:export-filename="src/characters/J_01.png"
   inkscape:export-xdpi="250"
   inkscape:export-ydpi="250" /><rect
   style="fill:#ffffff;stroke-width:0.961078"
   id="rect405"
   width="50"
   height="80"
   x="557.78076"
   y="335.06262"
   inkscape:export-filename="src/characters/K_01.png"
   inkscape:export-xdpi="250"
   inkscape:export-ydpi="250" /><rect
   style="fill:#ffffff;stroke-width:0.961078"
   id="rect418"
   width="50"
   height="80"
   x="669.13977"
   y="336.37659"
   inkscape:export-filename="src/characters/M_01.png"
   inkscape:export-xdpi="250"
   inkscape:export-ydpi="250" /><rect
   style="fill:#ffffff;stroke-width:0.961078"
   id="rect406"
   width="50"
   height="80"
   x="612.31055"
   y="335.06262"
   inkscape:export-filename="src/characters/L_01.png"
   inkscape:export-xdpi="250"
   inkscape:export-ydpi="250" /><path
   d="m 58.480706,402.31362 c 0.143,0.543 0.214,0.986 0.214,1.33 0,1.83 -0.943,2.744 -2.831,2.744 h -4.545 c -1.487,0 -2.287,-0.485 -2.401,-1.458 l -1.672,-9.305 c -0.343,-1.201 -0.972,-1.801 -1.887,-1.801 h -13.979 c -0.458,0 -0.815,0.128 -1.072,0.386 -0.286,0.372 -0.487,0.844 -0.601,1.415 l -1.801,9.305 c 0,0.429 -0.229,0.787 -0.687,1.072 -0.486,0.257 -0.929,0.386 -1.329,0.386 h -4.288 c -0.487,0 -1.001,-0.2 -1.544,-0.6 -0.572,-0.343 -0.857,-1.057 -0.857,-2.144 0,-0.257 0.085,-0.7 0.257,-1.33 l 10.377,-55.146 c 0.199,-1.086 0.757,-1.958 1.672,-2.616 0.829,-0.542 1.629,-0.814 2.401,-0.814 h 9.991 c 0.915,0 1.672,0.157 2.273,0.472 0.628,0.4 1.072,1.072 1.329,2.015 z m -13.508,-18.868 -5.103,-28.388 c -0.257,-0.886 -0.701,-1.33 -1.33,-1.33 -0.658,0 -1.101,0.443 -1.329,1.33 l -5.231,28.388 v 0.128 c 0,0.086 0,0.171 0,0.257 0,0.458 0.157,0.844 0.472,1.158 0.285,0.343 0.686,0.515 1.201,0.515 h 9.562 c 1.172,0 1.758,-0.686 1.758,-2.058 z"
   id="path406" /><g
   id="g464"
   inkscape:export-filename="src/characters/B_01.png"
   inkscape:export-xdpi="250"
   inkscape:export-ydpi="250"><rect
     style="fill:#ffffff;stroke-width:0.961078"
     id="rect396"
     width="50"
     height="80"
     x="67.012512"
     y="335.06262" /><path
     d="m 111.88852,387.26312 c 0,5.975 -1.71501,10.677 -5.14601,14.108 -3.43,3.345 -8.233002,5.017 -14.408002,5.017 h -18.396 c -0.458,0 -0.858,-0.171 -1.201,-0.514 -0.401,-0.4 -0.601,-0.829 -0.601,-1.287 v -59.177 c 0,-0.4 0.2,-0.8 0.601,-1.201 0.314,-0.314 0.714,-0.472 1.201,-0.472 h 18.396 c 5.06,0 9.076002,1.187 12.050002,3.559 3.03,2.487 4.545,6.189 4.545,11.106 0,2.859 -0.52899,5.317 -1.586,7.375 -0.601,1.029 -1.31499,2.03 -2.144,3.002 -0.83,0.972 -1.658,1.93 -2.487,2.873 l -0.128,0.128 c -0.257,0.315 -0.257,0.543 0,0.686 l 0.128,0.129 c 0.343,0.257 0.836,0.607 1.479,1.05 0.643,0.444 1.30801,0.922 1.994,1.437 1.572,1.573 2.758,3.045 3.559,4.417 0.8,1.602 1.271,2.645 1.41501,3.13 0.486,1.347 0.729,2.891 0.729,4.634 z m -12.993013,-27.316 c 0,-2.515 -0.872999,-4.545 -2.615999,-6.089 -1.773,-1.515 -3.931,-2.273 -6.475,-2.273 h -5.832 c -1.201,0 -1.801,0.6 -1.801,1.801 v 13.979 c 0,0.372 0.157,0.801 0.472,1.287 0.314,0.315 0.714,0.472 1.201,0.472 h 6.346 c 5.803,0 8.704999,-3.058 8.704999,-9.177 z m 2.959003,26.973 c 0,-3.087 -0.83,-5.631 -2.487003,-7.633 -1.686999,-2 -3.987999,-3.002 -6.903999,-3.002 h -8.491 c -0.572,0 -1.015,0.201 -1.329,0.601 -0.315,0.572 -0.472,1.015 -0.472,1.329 v 16.467 c 0,0.257 0.157,0.658 0.472,1.201 0.542,0.315 0.943,0.472 1.201,0.472 h 8.833 c 2.745,0 4.974,-0.915 6.688999,-2.745 1.658003,-1.658 2.488003,-3.888 2.488003,-6.69 z"
     id="path407" /></g><path
   d="m 166.39151,387.17662 c 0,6.003 -1.787,10.735 -5.36,14.194 -3.602,3.345 -8.462,5.017 -14.58,5.017 -7.004,0 -12.04999,-1.672 -15.13699,-5.017 -3.116,-3.373 -4.67401,-8.147 -4.67401,-14.322 v -32.719 c 0,-3.173 1.04301,-5.76 3.13,-7.762 2.144,-1.887 4.688,-2.83 7.633,-2.83 h 21.226 c 1.458,0 2.73,0.472 3.816,1.415 0.972,1.058 1.458,2.416 1.458,4.074 l -1.458,11.664 c -0.143,0.972 -0.572,1.458 -1.286,1.458 h -5.618 c -1.115,0 -1.672,-0.6 -1.672,-1.801 v -7.29 c 0,-0.343 -0.2,-0.743 -0.6,-1.201 -0.315,-0.314 -0.758,-0.472 -1.33,-0.472 h -11.063 c -1.17199,0 -2.173,0.401 -3.001,1.201 -0.801,0.744 -1.20099,1.744 -1.20099,3.002 v 29.803 c 0,3.431 0.757,6.104 2.272,8.019 1.54399,1.83 4.04499,2.745 7.50399,2.745 3.059,0 5.48901,-0.958 7.29001,-2.873 1.743,-1.858 2.616,-4.288 2.616,-7.29 0,-1.029 0.59999,-1.543 1.80099,-1.543 h 6.34701 c 0.74299,0 1.258,0.243 1.544,0.729 0.22799,0.513 0.343,1.113 0.34299,1.799 z"
   id="path408" /><path
   d="m 220.94813,390.86462 c 0,4.631 -1.51601,8.362 -4.54501,11.192 -3.11699,2.888 -6.93299,4.331 -11.44999,4.331 h -21.956 c -0.458,0 -0.886,-0.2 -1.286,-0.6 -0.343,-0.515 -0.515,-0.915 -0.515,-1.201 v -6.218 c 0,-0.257 0.171,-0.529 0.515,-0.815 0.4,-0.285 0.915,-0.529 1.543,-0.729 0.858,-0.314 1.415,-0.6 1.672,-0.857 0.314,-0.172 0.472,-0.486 0.472,-0.943 v -40.91 c 0,-0.4 -0.157,-0.757 -0.472,-1.072 -0.2,-0.114 -0.443,-0.236 -0.729,-0.365 -0.286,-0.128 -0.6,-0.292 -0.94301,-0.493 -0.572,-0.143 -1.08699,-0.371 -1.543,-0.686 -0.34299,-0.171 -0.51499,-0.457 -0.51499,-0.857 v -5.231 c 0,-0.343 0.17099,-0.743 0.51499,-1.201 0.257,-0.314 0.64301,-0.472 1.15801,-0.472 h 24.014 c 4.259,0 7.63299,1.43 10.12,4.288 2.63,3.001 3.945,6.619 3.945,10.849 z m -10.03501,-0.129 v -31.604 c 0,-1.887 -0.55699,-3.645 -1.67199,-5.274 -1.144,-1.515 -2.64501,-2.273 -4.502,-2.273 h -7.54701 c -1.17199,0 -1.75799,0.6 -1.75799,1.801 v 41.167 c 0,1.201 0.58499,1.801 1.75799,1.801 h 7.54701 c 1.74399,0 3.216,-0.486 4.41699,-1.458 1.171,-1.057 1.757,-2.444 1.757,-4.16 z"
   id="path409" /><path
   d="m 275.47792,404.58662 c 0,0.458 -0.15799,0.886 -0.472,1.287 -0.315,0.343 -0.715,0.514 -1.201,0.514 h -36.27799 c -1.20101,0 -1.801,-0.6 -1.801,-1.801 v -59.177 c 0,-1.115 0.59999,-1.672 1.801,-1.672 h 33.534 c 0.57099,0 1.014,0.157 1.329,0.472 0.39999,0.4 0.601,0.8 0.601,1.201 v 4.502 c 0,0.315 -0.15801,0.715 -0.47201,1.201 -0.315,0.315 -0.758,0.472 -1.33,0.472 h -23.62799 c -1.20101,0 -1.801,0.6 -1.801,1.801 v 10.634 c 0,0.372 0.15699,0.801 0.47199,1.287 0.31401,0.315 0.757,0.472 1.32901,0.472 h 16.124 c 0.457,0 0.88599,0.2 1.286,0.601 0.31399,0.486 0.472,0.929 0.472,1.329 v 4.288 c 0,1.201 -0.58601,1.801 -1.758,1.801 h -16.124 c -1.201,0 -1.801,0.557 -1.801,1.672 v 18.954 c 0,0.401 0.157,0.844 0.472,1.33 0.429,0.4 0.872,0.6 1.329,0.6 h 26.244 c 0.485,0 0.886,0.158 1.201,0.472 0.314,0.429 0.472,0.873 0.472,1.33 z"
   id="path410" /><path
   d="m 330.04189,349.91162 c 0,0.401 -0.157,0.801 -0.472,1.201 -0.286,0.315 -0.686,0.472 -1.201,0.472 h -23.842 c -1.28701,0 -2.288,0.486 -3.00101,1.458 -0.80099,0.943 -1.20099,2.087 -1.20099,3.431 v 16.252 c 0,0.372 0.157,0.801 0.472,1.287 0.4,0.4 0.8,0.6 1.201,0.6 h 18.825 c 0.543,0 0.972,0.158 1.28699,0.472 0.31401,0.487 0.472,0.93 0.472,1.33 v 5.618 c 0,1.201 -0.586,1.801 -1.758,1.801 h -18.696 c -1.201,0 -1.801,0.586 -1.801,1.758 v 18.995 c 0,1.201 -0.601,1.801 -1.801,1.801 h -6.432 c -1.20099,0 -1.801,-0.6 -1.801,-1.801 v -53.002 c 0,-2.115 0.80001,-3.973 2.40101,-5.575 1.572,-1.515 4.117,-2.272 7.633,-2.272 h 27.83 c 0.571,0 1,0.157 1.287,0.472 0.39999,0.372 0.6,0.771 0.6,1.201 v 4.501 z"
   id="path411" /><path
   d="m 384.53753,404.17762 c 0,0.458 -0.15801,0.886 -0.47301,1.287 -0.314,0.343 -0.71499,0.514 -1.199,0.514 h -4.031 c -0.602,0 -1.088,-0.328 -1.459,-0.986 -0.658,-0.8 -1.215,-1.629 -1.672,-2.487 -0.801,-1.601 -1.4,-2.401 -1.801,-2.401 -0.201,0 -0.357,0.128 -0.473,0.386 -1.771,2.144 -3.759,3.731 -5.959,4.76 -2.288,1.029 -4.875,1.544 -7.762,1.544 -4.488,0 -8.104,-1.515 -10.849,-4.545 -2.716,-2.973 -4.074,-6.704 -4.074,-11.192 v -37.822 c 0,-2.887 1,-5.274 3.002,-7.161 1.887,-1.829 4.23,-2.744 7.033,-2.744 h 18.139 c 2.602,0 4.744,0.672 6.432,2.015 1.77301,1.516 2.65801,3.459 2.65801,5.832 v 4.889 c 0,0.4 -0.15601,0.843 -0.47101,1.329 -0.37299,0.315 -0.814,0.472 -1.32999,0.472 h -6.561 c -0.486,0 -0.887,-0.157 -1.201,-0.472 -0.31401,-0.314 -0.471,-0.757 -0.471,-1.329 v -3.087 c 0,-0.429 -0.20101,-0.872 -0.602,-1.33 -0.514,-0.314 -0.957,-0.472 -1.329,-0.472 h -9.777 c -2.487,0 -4.074,0.643 -4.76,1.93 -0.229,0.229 -0.429,0.744 -0.601,1.544 0,0.257 -0.021,0.586 -0.064,0.986 -0.043,0.401 -0.064,0.83 -0.064,1.287 v 33.534 c 0,1.944 1,3.488 3.00099,4.631 2.086,1.115 4.074,1.672 5.96,1.672 0.857,0 1.93,-0.114 3.216,-0.343 1.4,-0.285 2.602,-0.686 3.602,-1.201 1.145,-0.486 2.059,-1.115 2.744,-1.887 0.77301,-0.8 1.158,-1.758 1.158,-2.873 v -8.705 c 0,-0.371 -0.156,-0.772 -0.471,-1.201 -0.28699,-0.314 -0.71499,-0.472 -1.28699,-0.472 h -8.62 c -0.457,0 -0.88601,-0.2 -1.286,-0.601 -0.315,-0.457 -0.472,-0.9 -0.472,-1.329 v -4.417 c 0,-0.314 0.156,-0.714 0.472,-1.201 0.48599,-0.314 0.915,-0.472 1.286,-0.472 h 18.612 c 1.199,0 1.801,0.601 1.801,1.801 v 30.317 z"
   id="path412" /><path
   d="m 438.67637,404.45862 c 0,0.429 -0.158,0.873 -0.473,1.33 -0.4,0.4 -0.844,0.6 -1.32799,0.6 h -6.43401 c -0.457,0 -0.9,-0.2 -1.32799,-0.6 -0.316,-0.343 -0.47301,-0.743 -0.47301,-1.201 v -25.644 c 0,-0.457 -0.156,-0.9 -0.471,-1.329 -0.31599,-0.314 -0.71499,-0.472 -1.201,-0.472 h -16.209 c -1.201,0 -1.801,0.558 -1.801,1.672 v 25.9 c 0,0.458 -0.158,0.844 -0.473,1.158 -0.314,0.343 -0.758,0.514 -1.328,0.514 h -6.434 c -0.572,0 -1,-0.171 -1.285,-0.514 -0.344,-0.457 -0.516,-0.843 -0.516,-1.158 v -59.091 c 0,-0.4 0.172,-0.829 0.516,-1.287 0.256,-0.4 0.643,-0.6 1.156,-0.6 h 6.689 c 0.516,0 0.916,0.157 1.201,0.472 0.31401,0.315 0.473,0.715 0.473,1.201 v 19.811 c 0,0.372 0.15601,0.801 0.471,1.287 0.43001,0.401 0.871,0.601 1.33,0.601 h 16.123 c 0.344,0 0.771,-0.157 1.287,-0.472 0.314,-0.4 0.471,-0.8 0.471,-1.201 v -20.025 c 0,-0.486 0.156,-0.886 0.473,-1.201 0.314,-0.314 0.756,-0.472 1.328,-0.472 h 6.434 c 0.6,0 1.043,0.157 1.328,0.472 0.314,0.429 0.473,0.829 0.473,1.201 v 59.048 z"
   id="path413" /><path
   d="m 488.57963,404.58662 c 0,0.458 -0.156,0.886 -0.471,1.287 -0.314,0.343 -0.715,0.514 -1.201,0.514 h -26.244 c -1.199,0 -1.801,-0.6 -1.801,-1.801 v -6.818 c 0,-0.772 0.486,-1.201 1.459,-1.286 l 7.84801,-0.858 c 0.48399,0 0.72899,-0.2 0.72899,-0.6 v -41.51 c 0,-0.314 -0.158,-0.601 -0.473,-0.857 -0.656,-0.4 -1.21499,-0.671 -1.672,-0.815 -0.371,-0.171 -0.68,-0.336 -0.922,-0.493 -0.242,-0.157 -0.449,-0.279 -0.621,-0.365 -0.314,-0.257 -0.473,-0.528 -0.473,-0.814 v -4.76 c 0,-0.429 0.199,-0.829 0.602,-1.201 0.256,-0.314 0.643,-0.472 1.156,-0.472 h 14.324 c 0.6,0 1.043,0.157 1.328,0.472 0.4,0.4 0.602,0.8 0.602,1.201 v 4.76 c 0,0.229 -0.158,0.5 -0.473,0.814 -0.201,0.086 -0.422,0.208 -0.664,0.365 -0.244,0.157 -0.537,0.322 -0.879,0.493 -0.172,0.058 -0.701,0.329 -1.588,0.815 -0.4,0.229 -0.6,0.514 -0.6,0.857 v 41.51 c 0,0.4 0.199,0.6 0.6,0.6 l 8.02,0.729 c 0.943,0.144 1.414,0.615 1.414,1.415 z"
   id="path414" /><path
   d="m 548.12644,390.86512 c 0,4.774 -1.158,8.548 -3.475,11.321 -2.287,2.802 -5.617,4.202 -9.99,4.202 h -12.908 c -4.459,0 -7.805,-1.357 -10.035,-4.074 -2.229,-2.601 -3.344,-6.417 -3.344,-11.449 v -4.203 c 0,-0.628 0.129,-1.143 0.387,-1.543 0.17,-0.314 0.686,-0.472 1.543,-0.472 h 6.303 c 0.629,0 1.072,0.2 1.33,0.6 0.314,0.458 0.473,0.929 0.473,1.415 v 4.203 c 0,3.66 1.758,5.489 5.273,5.489 h 9.049 c 1.742,0 3.05901,-0.443 3.945,-1.329 0.943,-0.944 1.414,-2.33 1.414,-4.16 v -37.479 c 0,-1.201 -0.586,-1.801 -1.758,-1.801 h -12.779 c -0.572,0 -1.016,-0.157 -1.32799,-0.472 -0.316,-0.486 -0.47301,-0.886 -0.47301,-1.201 v -4.502 c 0,-0.4 0.19901,-0.8 0.60001,-1.201 0.25799,-0.314 0.701,-0.472 1.32999,-0.472 h 22.64301 c 1.199,0 1.801,0.557 1.801,1.672 v 45.456 z"
   id="path415" /><path
   d="m 601.84127,402.91462 c 0.543,0.744 0.81399,1.458 0.81399,2.144 0,0.886 -0.82799,1.329 -2.486,1.329 h -6.34799 c -0.885,0 -1.672,-0.557 -2.35701,-1.672 l -13.24999,-22.556 c -0.287,-0.4 -0.645,-0.6 -1.072,-0.6 -0.31401,0 -0.602,0.2 -0.85701,0.6 l -3.346,4.502 c -0.543,0.858 -0.814,1.744 -0.814,2.659 v 15.395 c 0,0.487 -0.201,0.873 -0.6,1.158 -0.344,0.343 -0.744,0.514 -1.201,0.514 h -5.617 c -0.572,0 -1.002,-0.171 -1.287,-0.514 -0.344,-0.457 -0.514,-0.843 -0.514,-1.158 v -59.091 c 0,-0.4 0.17,-0.829 0.514,-1.287 0.258,-0.4 0.643,-0.6 1.158,-0.6 h 5.875 c 0.484,0 0.885,0.157 1.199,0.472 0.314,0.315 0.473,0.715 0.473,1.201 v 24.571 c 0,0.458 0.314,0.729 0.943,0.814 0.4,0 0.844,-0.271 1.33,-0.814 l 19.082,-24.829 c 0,-0.057 0.021,-0.093 0.064,-0.107 0.043,-0.014 0.064,-0.064 0.064,-0.15 0.627,-0.772 1.301,-1.158 2.016,-1.158 h 4.545 c 1.65801,0 2.486,0.429 2.486,1.286 0,0.601 -0.271,1.287 -0.814,2.059 l -17.539,23.713 c -0.17,0.171 -0.256,0.372 -0.256,0.601 0,0.029 0.086,0.186 0.256,0.472 0,0.085 0,0.136 0,0.15 0,0.015 0,0.05 0,0.107 z"
   id="path416" /><path
   d="m 657.18605,401.37062 c 0,1.43 -0.471,2.616 -1.414,3.559 -1.115,0.973 -2.316,1.458 -3.602,1.458 h -32.934 c -0.572,0 -1.002,-0.171 -1.287,-0.514 -0.344,-0.457 -0.514,-0.843 -0.514,-1.158 v -59.091 c 0,-0.4 0.17,-0.829 0.514,-1.287 0.258,-0.4 0.643,-0.6 1.158,-0.6 h 6.689 c 0.514,0 0.914,0.157 1.201,0.472 0.314,0.315 0.471,0.715 0.471,1.201 v 49.014 c 0,0.401 0.158,0.844 0.473,1.33 0.428,0.4 0.871,0.6 1.328,0.6 h 16.125 c 0.342,0 0.771,-0.157 1.285,-0.472 0.314,-0.457 0.473,-0.857 0.473,-1.201 v -6.347 c 0,-0.457 0.15599,-0.814 0.471,-1.072 0.42999,-0.4 0.873,-0.601 1.33,-0.601 h 6.432 c 0.486,0 0.93,0.201 1.33,0.601 0.314,0.315 0.471,0.672 0.471,1.072 z"
   id="path417" /><path
   d="m 714.01527,406.02959 c 0,0.372 -0.156,0.758 -0.471,1.158 -0.314,0.343 -0.715,0.514 -1.201,0.514 h -5.961 c -0.543,0 -0.986,-0.171 -1.328,-0.514 -0.40201,-0.4 -0.602,-0.786 -0.602,-1.158 v -38.979 c 0,-0.2 -0.186,-0.357 -0.557,-0.472 -0.34401,0 -0.629,0.158 -0.857,0.472 l -6.904,14.537 c -0.258,0.801 -0.943,1.201 -2.059,1.201 -0.943,0 -1.572,-0.4 -1.887,-1.201 l -6.947,-14.537 c -0.199,-0.314 -0.471,-0.472 -0.814,-0.472 -0.4,0 -0.6,0.158 -0.6,0.472 v 38.979 c 0,0.429 -0.201,0.815 -0.602,1.158 -0.314,0.343 -0.744,0.514 -1.285,0.514 h -5.875 c -0.572,0 -1.002,-0.171 -1.287,-0.514 -0.344,-0.457 -0.514,-0.843 -0.514,-1.158 v -59.091 c 0,-0.4 0.17,-0.829 0.514,-1.287 0.258,-0.4 0.643,-0.6 1.158,-0.6 h 5.402 c 1,0 1.758,0.472 2.273,1.415 l 9.52,22.427 c 0.113,0.4 0.43,0.6 0.943,0.6 0.6,0 0.957,-0.2 1.072,-0.6 l 9.562,-22.427 c 0.457,-0.943 1.215,-1.415 2.273,-1.415 h 5.359 c 0.514,0 0.914,0.2 1.201,0.6 0.314,0.429 0.471,0.858 0.471,1.287 v 59.091 z"
   id="path418" /><rect
   style="fill:#ffffff;stroke-width:0.961078"
   id="rect419"
   width="50"
   height="80"
   x="12.973065"
   y="430.76178"
   inkscape:export-filename="src/characters/N_01.png"
   inkscape:export-xdpi="250"
   inkscape:export-ydpi="250" /><rect
   style="fill:#ffffff;stroke-width:0.961078"
   id="rect420"
   width="50"
   height="80"
   x="67.012512"
   y="430.76178"
   inkscape:export-filename="src/characters/O_01.png"
   inkscape:export-xdpi="250"
   inkscape:export-ydpi="250" /><rect
   style="fill:#ffffff;stroke-width:0.961078"
   id="rect421"
   width="50"
   height="80"
   x="121.51601"
   y="430.76178"
   inkscape:export-filename="src/characters/P_01.png"
   inkscape:export-xdpi="250"
   inkscape:export-ydpi="250" /><rect
   style="fill:#ffffff;stroke-width:0.961078"
   id="rect422"
   width="50"
   height="80"
   x="176.07213"
   y="430.76178"
   inkscape:export-filename="src/characters/Q_01.png"
   inkscape:export-xdpi="250"
   inkscape:export-ydpi="250" /><rect
   style="fill:#ffffff;stroke-width:0.961078"
   id="rect423"
   width="50"
   height="80"
   x="230.60193"
   y="430.76178"
   inkscape:export-filename="src/characters/R_01.png"
   inkscape:export-xdpi="250"
   inkscape:export-ydpi="250" /><rect
   style="fill:#ffffff;stroke-width:0.961078"
   id="rect424"
   width="50"
   height="80"
   x="285.1684"
   y="430.76178"
   inkscape:export-filename="src/characters/S_01.png"
   inkscape:export-xdpi="250"
   inkscape:export-ydpi="250" /><rect
   style="fill:#ffffff;stroke-width:0.961078"
   id="rect425"
   width="50"
   height="80"
   x="339.66153"
   y="430.76178"
   inkscape:export-filename="src/characters/T_01.png"
   inkscape:export-xdpi="250"
   inkscape:export-ydpi="250" /><rect
   style="fill:#ffffff;stroke-width:0.961078"
   id="rect426"
   width="50"
   height="80"
   x="393.79938"
   y="430.76178"
   inkscape:export-filename="src/characters/U_01.png"
   inkscape:export-xdpi="250"
   inkscape:export-ydpi="250" /><rect
   style="fill:#ffffff;stroke-width:0.961078"
   id="rect427"
   width="50"
   height="80"
   x="448.72113"
   y="430.76178"
   inkscape:export-filename="src/characters/V_01.png"
   inkscape:export-xdpi="250"
   inkscape:export-ydpi="250" /><rect
   style="fill:#ffffff;stroke-width:0.961078"
   id="rect428"
   width="50"
   height="80"
   x="503.25095"
   y="430.76178"
   inkscape:export-filename="src/characters/W_01.png"
   inkscape:export-xdpi="250"
   inkscape:export-ydpi="250" /><rect
   style="fill:#ffffff;stroke-width:0.961078"
   id="rect429"
   width="50"
   height="80"
   x="557.78076"
   y="430.76178"
   inkscape:export-filename="src/characters/X_01.png"
   inkscape:export-xdpi="250"
   inkscape:export-ydpi="250" /><rect
   style="fill:#ffffff;stroke-width:0.961078"
   id="rect431"
   width="50"
   height="80"
   x="612.31055"
   y="430.76178"
   inkscape:export-filename="src/characters/Y_01.png"
   inkscape:export-xdpi="250"
   inkscape:export-ydpi="250" /><rect
   style="fill:#ffffff;stroke-width:0.961078"
   id="rect430"
   width="50"
   height="80"
   x="669.13977"
   y="432.07574"
   inkscape:export-filename="src/characters/Z_01.png"
   inkscape:export-xdpi="250"
   inkscape:export-ydpi="250" /><path
   d="m 57.849565,500.41428 c 0,0.372 -0.157,0.758 -0.472,1.158 -0.315,0.343 -0.715,0.515 -1.201,0.515 h -5.83201 c -0.51499,0 -0.91499,-0.172 -1.20099,-0.515 -0.315,-0.314 -0.47201,-0.743 -0.47201,-1.287 0,-0.257 -0.043,-0.456 -0.12799,-0.6 0,-0.4 -0.043,-0.644 -0.12901,-0.729 l -19.21099,-33.877 c -0.257,-0.4 -0.572,-0.6 -0.94301,-0.6 -0.62899,0 -0.94299,0.2 -0.94299,0.6 v 35.335 c 0,0.458 -0.15801,0.844 -0.472,1.158 -0.343,0.343 -0.78701,0.515 -1.33001,0.515 h -5.61699 c -0.572,0 -1.00101,-0.172 -1.28701,-0.515 -0.34299,-0.457 -0.51499,-0.843 -0.51499,-1.158 v -59.091 c 0,-0.4 0.172,-0.829 0.51499,-1.287 0.257,-0.4 0.64301,-0.6 1.15801,-0.6 h 5.875 c 0.48599,0 0.886,0.157 1.201,0.472 0.31399,0.315 0.472,0.715 0.472,1.201 0,0.229 0.043,0.458 0.12799,0.686 0,0.315 0.028,0.557 0.086,0.729 l 19.211,33.877 c 0.257,0.4 0.615,0.601 1.072,0.601 0.57099,0 0.857,-0.2 0.857,-0.601 v -35.292 c 0,-0.486 0.157,-0.886 0.472,-1.201 0.257,-0.314 0.657,-0.472 1.201,-0.472 h 5.70399 c 0.60001,0 1.04301,0.2 1.32901,0.6 0.314,0.429 0.472,0.858 0.472,1.287 z"
   id="path3143-7" /><path
   d="m 111.88851,473.37728 c 0,4.117 -0.2,7.862 -0.6,11.235 -0.487,3.46 -1.358,6.476 -2.616,9.048 -1.344,2.773 -3.374,4.918 -6.089,6.433 -2.772996,1.602 -6.346996,2.401 -10.720996,2.401 -4.346,0 -7.89,-0.8 -10.635,-2.401 -2.716,-1.63 -4.70301,-3.816 -5.96,-6.561 -1.31501,-2.516 -2.159,-5.46 -2.53,-8.834 -0.401,-3.745 -0.601,-7.519 -0.601,-11.321 0,-3.888 0.443,-7.99 1.33,-12.307 0.4,-2.344 1.115,-4.917 2.144,-7.719 1,-2.687 2.23,-5.045 3.68799,-7.076 1.45801,-2.144 3.25901,-3.887 5.40301,-5.231 2.029,-1.343 4.417,-2.015 7.161,-2.015 2.716,0 5.131,0.629 7.247,1.887 2.257996,1.487 4.130996,3.273 5.617996,5.36 1.543,2.288 2.772,4.646 3.688,7.076 0.943,2.573 1.657,5.146 2.144,7.719 0.885,4.087 1.329,8.189 1.329,12.306 z m -10.035,0.343 c 0,-2.374 -0.115,-4.789 -0.34301,-7.248 -0.22899,-2.401 -0.67199,-5.189 -1.32899,-8.362 -0.714996,-2.973 -1.743996,-5.36 -3.086996,-7.161 -1.401,-2 -3.146,-3.001 -5.232,-3.001 -2.058,0 -3.773,1.001 -5.146,3.001 -1.229,1.744 -2.23001,4.088 -3.002,7.033 -0.715,3.374 -1.101,6.161 -1.158,8.362 -0.257,2.63 -0.386,5.089 -0.386,7.376 0,1.516 0.021,2.888 0.064,4.116 0.043,1.229 0.107,2.373 0.193,3.431 0.229,2.173 0.629,4.031 1.201,5.575 0.74299,1.829 1.729,3.188 2.95899,4.073 1.37301,1.029 3.13,1.544 5.274,1.544 2.20101,0 4.03101,-0.515 5.48901,-1.544 1.287,-0.972 2.316,-2.401 3.087986,-4.288 0.48601,-1.372 0.88601,-3.244 1.20101,-5.617 0.143,-2.23 0.214,-4.66 0.214,-7.29 z"
   id="path3145-6" /><path
   d="m 166.39201,458.38928 c 0,7.176 -1.516,12.622 -4.545,16.339 -2.974,3.745 -7.97599,5.617 -15.009,5.617 h -5.017 c -1.201,0 -1.80099,0.601 -1.80099,1.801 v 18.268 c 0,0.458 -0.15801,0.844 -0.472,1.158 -0.315,0.343 -0.758,0.515 -1.33,0.515 h -6.432 c -0.572,0 -1.001,-0.172 -1.287,-0.515 -0.34301,-0.457 -0.515,-0.843 -0.515,-1.158 v -51.33 c 0,-1.201 -0.51501,-1.801 -1.54301,-1.801 h -0.129 c -1.115,0 -1.672,-0.558 -1.672,-1.672 v -4.502 c 0,-0.4 0.2,-0.8 0.601,-1.201 0.314,-0.314 0.757,-0.472 1.329,-0.472 h 21.698 c 2.63,0 4.86,0.514 6.689,1.543 2.001,1.058 3.716,2.487 5.146,4.288 1.4,1.83 2.472,3.859 3.216,6.089 0.715,2.23 1.073,4.575 1.073,7.033 z m -10.034,1.201 c 0,-1.314 -0.158,-2.873 -0.472,-4.674 -0.343,-1.4 -0.901,-2.672 -1.672,-3.816 -0.772,-1.229 -1.758,-2.144 -2.959,-2.744 -1.258,-0.714 -2.773,-1.072 -4.545,-1.072 h -4.76 c -0.401,0 -0.844,0.157 -1.33,0.472 -0.4,0.458 -0.59999,0.9 -0.59999,1.33 v 21.483 c 0,0.343 0.15699,0.787 0.47199,1.33 0.343,0.315 0.786,0.471 1.329,0.471 h 4.889 c 1.515,0 2.873,-0.4 4.074,-1.201 1.172,-0.743 2.201,-1.787 3.087,-3.13 0.772,-1.229 1.4,-2.616 1.887,-4.16 0.4,-1.459 0.6,-2.888 0.6,-4.289 z"
   id="path3147-2" /><path
   d="m 220.94813,500.28528 c -0.14401,1.201 -0.94301,1.802 -2.40101,1.802 h -21.227 c -2.258,0 -4.331,-0.529 -6.218,-1.587 -2.116,-1.115 -3.816,-2.501 -5.103,-4.159 -1.458,-1.687 -2.616,-3.674 -3.473,-5.961 -0.887,-2.315 -1.33,-4.503 -1.33,-6.561 v -29.589 c 0,-2.601 0.558,-4.917 1.672,-6.947 1.029,-1.801 2.544,-3.345 4.545,-4.631 1.772,-1.057 3.845,-1.901 6.218,-2.53 2.315,-0.457 4.745,-0.686 7.29,-0.686 2.573,0 5.031,0.229 7.376,0.686 2.344,0.486 4.488,1.329 6.432,2.53 1.743,1.115 3.259,2.659 4.545,4.631 1.115,2.03 1.672,4.346 1.672,6.947 v 19.211 c 0,0.943 -0.029,1.83 -0.086,2.659 -0.058,0.829 -0.1,1.572 -0.128,2.229 -0.315,1.572 -0.6,2.759 -0.857,3.56 -0.257,0.543 -0.515,1.107 -0.772,1.693 -0.257,0.586 -0.558,1.18 -0.9,1.779 -0.372,0.544 -0.793,1.145 -1.265,1.802 -0.472,0.657 -0.965,1.372 -1.479,2.144 -0.086,0.086 -0.15,0.15 -0.193,0.193 -0.043,0.043 -0.093,0.093 -0.15,0.15 -0.4,0.514 -0.6,0.915 -0.6,1.2 0,0.229 0.043,0.386 0.128,0.472 0,0.144 0.114,0.386 0.343,0.729 l 5.231,6.561 0.129,0.129 c 0.401,0.629 0.601,1.144 0.60101,1.544 z m -10.034,-16.724 v -29.332 c 0,-2.144 -1.072,-3.816 -3.216,-5.017 -2.087,-1.287 -4.274,-1.93 -6.56101,-1.93 -2.315,0 -4.502,0.643 -6.561,1.93 -2.23,1.201 -3.345,2.873 -3.345,5.017 v 29.589 c 0,2.03 0.44301,3.902 1.329,5.617 0.8,1.744 2.115,2.616 3.945,2.616 h 6.089 c 0.572,0 0.929,-0.357 1.072,-1.072 0,-0.429 -0.086,-0.786 -0.257,-1.072 l -6.561,-9.434 c -0.315,-0.314 -0.472,-0.758 -0.472,-1.33 0,-0.515 0.243,-0.943 0.729,-1.286 0.4,-0.314 0.958,-0.472 1.672,-0.472 h 3.816 c 0.543,0 0.972,0.114 1.287,0.343 0.37101,0.229 0.815,0.701 1.329,1.415 l 3.817,5.274 c 0.40001,0.401 0.757,0.601 1.072,0.601 0.54401,10e-4 0.81601,-0.484 0.81601,-1.457 z"
   id="path3149-7" /><path
   d="m 275.47943,500.28578 c -0.144,1.201 -0.943,1.802 -2.401,1.802 h -6.432 c -0.171,0 -0.486,-0.129 -0.943,-0.387 -0.487,-0.199 -0.93,-0.671 -1.33,-1.415 l -15.609,-25.3 c -0.315,-0.714 -0.472,-1.314 -0.472,-1.801 v -6.09 c 0,-1.344 0.714,-2.016 2.144,-2.016 h 7.504 c 1.172,0 2.172,-0.515 3.001,-1.543 0.772,-1.086 1.158,-2.129 1.158,-3.131 v -11.32 c 0,-0.4 -0.158,-0.843 -0.472,-1.33 -0.515,-0.314 -0.916,-0.472 -1.201,-0.472 h -12.865 c -0.458,0 -0.9,0.2 -1.329,0.6 -0.315,0.572 -0.472,1.015 -0.472,1.33 v 51.201 c 0,0.458 -0.158,0.844 -0.472,1.158 -0.315,0.343 -0.758,0.515 -1.33,0.515 h -6.432 c -0.572,0 -1.001,-0.172 -1.287,-0.515 -0.343,-0.457 -0.515,-0.843 -0.515,-1.158 v -59.091 c 0,-0.4 0.172,-0.829 0.515,-1.287 0.257,-0.4 0.643,-0.6 1.158,-0.6 h 30.446 c 1.629,0 2.858,0.472 3.688,1.415 0.972,1.058 1.458,2.416 1.458,4.074 v 15.48 c 0,1.659 -0.758,3.259 -2.272,4.803 -1.516,1.258 -3.703,2.759 -6.561,4.502 -2.315,1.315 -3.746,2.201 -4.288,2.659 -0.343,0.286 -0.515,0.644 -0.515,1.072 0,0.515 0.243,1.072 0.729,1.673 l 14.666,23.499 c 0.028,0.114 0.114,0.187 0.257,0.214 0.317,0.745 0.474,1.23 0.474,1.459 z"
   id="path3151-0" /><path
   d="m 330.0434,485.89928 c 0,2.545 -0.515,4.975 -1.54301,7.29 -1.08699,2.03 -2.559,3.773 -4.41699,5.231 -2.03,1.401 -4.17401,2.444 -6.432,3.131 -2.516,0.629 -5.06,0.943 -7.633,0.943 -3.11601,0 -5.832,-0.242 -8.147,-0.729 -2.288,-0.314 -4.317,-1.101 -6.089,-2.359 -1.715,-1.028 -3.059,-2.658 -4.031,-4.888 -0.97201,-2.115 -1.458,-4.831 -1.458,-8.148 0,-0.228 0.172,-0.657 0.51499,-1.286 0.34301,-0.399 0.72901,-0.601 1.15801,-0.601 h 6.34699 c 0.486,0 0.88601,0.158 1.20101,0.472 0.17099,0.315 0.32799,0.758 0.47199,1.33 0.11401,1.43 0.47201,2.529 1.072,3.302 0.68601,0.943 1.486,1.629 2.401,2.059 1,0.514 2.029,0.829 3.087,0.943 0.714,0.171 1.87201,0.257 3.47301,0.257 1.744,0 2.973,-0.043 3.68799,-0.129 1.37201,-0.285 2.401,-0.571 3.087,-0.857 1.086,-0.543 1.844,-1.172 2.27301,-1.887 0.62799,-0.886 0.94299,-1.958 0.94299,-3.216 0,-2.03 -0.916,-3.902 -2.745,-5.618 -1.77299,-1.657 -4.54499,-3.688 -8.31899,-6.089 -3.002,-1.801 -5.118,-3.158 -6.34701,-4.075 -1.74399,-1.314 -3.33099,-2.701 -4.76,-4.159 -1.62899,-1.687 -2.82999,-3.473 -3.60199,-5.36 -0.94301,-1.915 -1.41501,-4.102 -1.41501,-6.561 0,-2.745 0.47201,-5.131 1.41501,-7.162 1.029,-2 2.387,-3.673 4.074,-5.017 1.772,-1.286 3.80199,-2.244 6.089,-2.873 2.029,-0.542 4.488,-0.814 7.375,-0.814 2.573,0 4.846,0.229 6.818,0.686 2.287,0.543 4.117,1.344 5.489,2.401 1.601,1.058 2.873,2.53 3.816,4.417 0.886,2.059 1.33,4.36 1.33,6.904 0,0.429 -0.17201,0.872 -0.515,1.329 -0.401,0.401 -0.83,0.601 -1.287,0.601 h -5.618 c -0.458,0 -0.9,-0.2 -1.329,-0.601 -0.315,-0.314 -0.47201,-0.714 -0.47201,-1.201 0,-2.344 -0.75799,-4.059 -2.27299,-5.146 -1.543,-1.029 -3.445,-1.544 -5.703,-1.544 -2.23,0 -4.34601,0.558 -6.347,1.672 -1.887,1.201 -2.83001,2.873 -2.83001,5.017 0,2.202 0.91501,4.074 2.745,5.618 1.743,1.687 4.517,3.717 8.31901,6.089 1.25799,0.857 2.41599,1.637 3.47399,2.337 1.057,0.701 2.015,1.351 2.873,1.951 1.801,1.315 3.388,2.702 4.76,4.16 1.629,1.801 2.83,3.602 3.602,5.403 0.945,2.032 1.416,4.291 1.41601,6.777 z"
   id="path3153-3" /><path
   d="m 384.53753,447.75478 c 0,0.458 -0.158,0.815 -0.473,1.072 -0.371,0.4 -0.81401,0.6 -1.328,0.6 h -11.922 c -1.20101,0 -1.801,0.558 -1.801,1.672 v 49.187 c 0,0.601 -0.157,1.029 -0.472,1.287 -0.314,0.343 -0.715,0.515 -1.2,0.515 h -6.561 c -1.173,0 -1.758,-0.601 -1.758,-1.802 v -49.186 c 0,-0.457 -0.2,-0.843 -0.6,-1.158 -0.343,-0.343 -0.787,-0.515 -1.33,-0.515 h -10.506 c -1.201,0 -1.801,-0.585 -1.801,-1.758 v -6.561 c 0,-1.115 0.601,-1.672 1.801,-1.672 h 36.064 c 0.57,0 1,0.157 1.285,0.472 0.4,0.372 0.602,0.771 0.602,1.201 z"
   id="path3155-9" /><path
   d="m 438.18138,499.75028 c 0,0.543 -0.158,0.986 -0.473,1.329 -0.457,0.4 -0.857,0.601 -1.199,0.601 h -5.748 c -0.543,0 -0.928,-0.2 -1.156,-0.601 -0.4,-0.4 -0.602,-0.8 -0.602,-1.201 v -3.602 c 0,-0.314 -0.156,-0.472 -0.471,-0.472 -0.315,0 -0.60199,0.129 -0.857,0.386 -2.088,1.944 -4.275,3.488 -6.562,4.631 -2.516,1.115 -4.945,1.673 -7.289,1.673 -2.545,0 -4.775,-0.472 -6.689,-1.415 -1.688,-0.857 -3.188,-2.215 -4.502,-4.074 -1.115,-1.715 -1.959,-3.63 -2.531,-5.746 -0.457,-2.058 -0.686,-4.358 -0.686,-6.903 v -43.44 c 0,-0.572 0.156,-1 0.473,-1.287 0.256,-0.4 0.656,-0.6 1.199,-0.6 h 6.646 c 0.51601,0 0.873,0.157 1.072,0.472 0.4,0.372 0.602,0.771 0.602,1.201 v 43.311 c 0,2.431 0.756,4.331 2.271,5.704 1.43,1.516 3.346,2.272 5.746,2.272 3.287,0 5.875,-1.158 7.762,-3.474 1.973,-2.172 2.959,-4.945 2.959,-8.319 v -39.494 c 0,-0.4 0.199,-0.8 0.602,-1.201 0.256,-0.314 0.699,-0.472 1.328,-0.472 h 6.434 c 0.484,0 0.885,0.157 1.199,0.472 0.314,0.315 0.473,0.715 0.473,1.201 v 59.048 z"
   id="path3157-9" /><path
   d="m 493.46864,442.18028 -12.736,54.503 c -0.572,1.658 -1.258,2.931 -2.05901,3.816 -0.94299,1.058 -2.129,1.587 -3.559,1.587 h -5.617 c -1.459,0 -2.645,-0.529 -3.561,-1.587 -1.027,-0.943 -1.672,-2.215 -1.928,-3.816 l -10.164,-54.503 c 0,-0.057 0,-0.092 0,-0.107 0,-0.014 0,-0.064 0,-0.15 0,-0.085 0,-0.157 0,-0.214 0,-0.686 0.17201,-1.244 0.51601,-1.672 0.14299,-0.4 0.52699,-0.6 1.156,-0.6 h 6.004 c 0.658,0 1.086,0.114 1.287,0.343 0.199,0.229 0.357,0.586 0.471,1.072 l 9.092,47.856 c 0.113,0.801 0.543,1.201 1.285,1.201 0.572,0 0.973,-0.4 1.201,-1.201 l 10.377,-47.856 c 0.086,-0.343 0.287,-0.7 0.602,-1.072 0.229,-0.229 0.543,-0.343 0.943,-0.343 h 5.01799 c 0.656,0 1.143,0.2 1.457,0.6 0.229,0.372 0.344,0.801 0.344,1.287 0,0.085 0,0.157 0,0.214 0,0.058 0,0.115 0,0.171 0,0.115 -0.021,0.208 -0.064,0.279 -0.043,0.07 -0.065,0.135 -0.065,0.192 z"
   id="path3159-9" /><path
   d="m 547.63295,442.18028 -6.689,58.449 c -0.143,0.972 -0.658,1.458 -1.543,1.458 h -3.816 c -0.857,0 -1.416,-0.486 -1.672,-1.458 l -3.604,-13.465 c -0.342,-0.972 -1.014,-1.458 -2.016,-1.458 -1.113,0 -1.83,0.486 -2.143,1.458 l -3.945,13.465 c -0.201,0.543 -0.35899,0.857 -0.473,0.943 -0.199,0.343 -0.557,0.515 -1.072,0.515 h -4.545 c -1.002,0 -1.559,-0.486 -1.672,-1.458 l -5.574,-58.449 c 0,-0.829 0.07,-1.515 0.213,-2.058 0.229,-0.457 0.672,-0.686 1.33,-0.686 h 6.775 c 1.057,0 1.586,0.557 1.586,1.672 l 2.145,37.093 c 0,0.315 0.156,0.515 0.473,0.601 0.229,0.144 0.541,0.215 0.943,0.215 0.312,0 0.6,-0.071 0.857,-0.215 0.314,-0.172 0.471,-0.371 0.471,-0.601 l 2.273,-12.521 c 0,-0.515 0.156,-0.829 0.471,-0.943 0.344,-0.257 0.814,-0.386 1.416,-0.386 h 1.801 c 0.742,0 1.172,0.444 1.287,1.33 l 1.672,12.521 c 0.143,0.315 0.344,0.515 0.6,0.601 0.172,0.144 0.457,0.215 0.857,0.215 0.4,0 0.715,-0.071 0.943,-0.215 0.314,-0.143 0.473,-0.343 0.473,-0.601 l 4.674,-37.35 c 0,-0.429 0.156,-0.786 0.473,-1.072 0.17,-0.229 0.484,-0.343 0.943,-0.343 h 4.416 c 0.486,0 0.928,0.229 1.33,0.686 0.229,0.656 0.342,1.342 0.342,2.057 z"
   id="path3161-1" /><path
   d="m 602.29027,498.95578 c 0.31399,0.887 0.47299,1.444 0.47299,1.673 0,0.972 -0.51599,1.458 -1.54499,1.458 h -6.818 c -0.428,0 -0.871,-0.172 -1.328,-0.515 -0.51601,-0.2 -0.83,-0.629 -0.943,-1.287 l -8.705,-21.354 c -0.115,-0.314 -0.387,-0.472 -0.814,-0.472 -0.572,0 -0.9,0.157 -0.986,0.472 l -9.906,21.698 c -0.086,0.229 -0.4,0.543 -0.943,0.943 -0.43,0.343 -0.9,0.515 -1.416,0.515 h -4.545 c -1.344,0 -2.016,-0.486 -2.016,-1.458 0,-0.2 0.072,-0.443 0.215,-0.729 l 12.908,-28.988 c 0.229,-0.343 0.342,-0.772 0.342,-1.287 0,-0.314 -0.113,-0.8 -0.342,-1.458 l -10.85,-26.458 c -0.086,-0.257 -0.129,-0.542 -0.129,-0.857 0,-0.657 0.199,-1.058 0.6,-1.201 0.314,-0.143 0.672,-0.214 1.072,-0.214 h 5.617 c 1.145,0 1.887,0.472 2.23,1.415 l 7.891,17.667 c 0.285,0.401 0.6,0.601 0.943,0.601 0.6,0 0.957,-0.2 1.072,-0.601 l 8.619,-17.667 c 0.057,-0.229 0.285,-0.543 0.68599,-0.943 0.4,-0.314 0.88701,-0.472 1.45901,-0.472 h 5.102 c 1.115,0 1.67399,0.472 1.67399,1.415 0,0.486 -0.115,0.929 -0.344,1.329 l -11.449,25.386 c -0.172,0.515 -0.258,1.001 -0.258,1.458 0,0.4 0.086,0.83 0.258,1.286 z"
   id="path3163-7" /><path
   d="m 656.97256,442.18128 c -6.461,20.555 -10.006,31.448 -10.635,32.676 l -3.344,6.562 c -0.17201,0.457 -0.25801,0.943 -0.25801,1.458 v 17.753 c 0,0.972 -0.47299,1.458 -1.416,1.458 h -7.16 c -0.943,0 -1.416,-0.486 -1.416,-1.458 v -17.754 c 0,-0.486 -0.129,-0.972 -0.385,-1.458 l -3.689,-6.562 c -0.486,-0.886 -4.145,-11.778 -10.977,-32.676 -0.086,-0.257 -0.129,-0.614 -0.129,-1.072 0,-0.486 0.156,-0.886 0.471,-1.201 0.201,-0.314 0.645,-0.472 1.33,-0.472 h 5.232 c 0.742,0 1.385,0.272 1.93,0.814 0.6,0.515 1.043,1.158 1.328,1.93 l 9.049,29.116 c 0.229,0.544 0.586,0.815 1.072,0.815 0.428,0 0.742,-0.271 0.943,-0.815 l 9.691,-29.116 c 0.172,-0.743 0.57,-1.429 1.199,-2.058 0.457,-0.457 1.172,-0.686 2.145,-0.686 h 3.346 c 0.686,0 1.115,0.2 1.285,0.6 0.314,0.286 0.473,0.715 0.473,1.287 0,0.085 0,0.165 0,0.236 0,0.072 0,0.15 0,0.236 0,0.085 -0.016,0.157 -0.043,0.214 -0.028,0.059 -0.042,0.116 -0.042,0.173 z"
   id="path3165-2" /><path
   d="m 714.01528,502.07224 c 0,0.887 -0.473,1.33 -1.41601,1.33 h -37.00599 c -0.887,0 -1.33001,-0.486 -1.33001,-1.458 v -9.306 c 0,-0.314 0.043,-0.558 0.12901,-0.729 0.344,-0.572 0.428,-0.772 0.258,-0.601 l 26.371,-41.253 c 0.143,-0.286 0.215,-0.486 0.215,-0.601 0,-0.571 -0.271,-0.857 -0.814,-0.857 h -24.699 c -0.973,0 -1.459,-0.429 -1.459,-1.287 v -5.146 c 0,-0.943 0.443,-1.415 1.33,-1.415 h 36.277 c 0.887,0 1.33,0.472 1.33,1.415 v 6.432 c 0,0.144 -0.021,0.272 -0.064,0.386 -0.043,0.115 -0.064,0.229 -0.064,0.343 -0.145,0.372 -0.23,0.572 -0.258,0.6 l -26.459,41.982 c -0.084,0.171 -0.127,0.371 -0.127,0.6 0,0.572 0.271,0.858 0.814,0.858 h 25.557 c 0.943,0 1.416,0.429 1.416,1.286 v 7.421 z"
   id="path3167-3" /><rect
   style="fill:#ffffff;stroke-width:0.961078"
   id="rect443"
   width="50"
   height="80"
   x="13.902184"
   y="524.60266"
   inkscape:export-filename="src/characters/0_01.png"
   inkscape:export-xdpi="250"
   inkscape:export-ydpi="250" /><rect
   style="fill:#ffffff;stroke-width:0.961078"
   id="rect444"
   width="50"
   height="80"
   x="67.458679"
   y="524.60266"
   inkscape:export-filename="src/characters/1_01.png"
   inkscape:export-xdpi="250"
   inkscape:export-ydpi="250" /><rect
   style="fill:#ffffff;stroke-width:0.961078"
   id="rect445"
   width="50"
   height="80"
   x="122.44512"
   y="524.60266"
   inkscape:export-filename="src/characters/2_01.png"
   inkscape:export-xdpi="250"
   inkscape:export-ydpi="250" /><rect
   style="fill:#ffffff;stroke-width:0.961078"
   id="rect446"
   width="50"
   height="80"
   x="177.00125"
   y="524.60266"
   inkscape:export-filename="src/characters/3_01.png"
   inkscape:export-xdpi="250"
   inkscape:export-ydpi="250" /><rect
   style="fill:#ffffff;stroke-width:0.961078"
   id="rect447"
   width="50"
   height="80"
   x="231.53105"
   y="524.60266"
   inkscape:export-filename="src/characters/4_01.png"
   inkscape:export-xdpi="250"
   inkscape:export-ydpi="250" /><rect
   style="fill:#ffffff;stroke-width:0.961078"
   id="rect448"
   width="50"
   height="80"
   x="286.0975"
   y="524.60266"
   inkscape:export-filename="src/characters/5_01.png"
   inkscape:export-xdpi="250"
   inkscape:export-ydpi="250" /><rect
   style="fill:#ffffff;stroke-width:0.961078"
   id="rect449"
   width="50"
   height="80"
   x="340.59064"
   y="524.60266"
   inkscape:export-filename="src/characters/6_01.png"
   inkscape:export-xdpi="250"
   inkscape:export-ydpi="250" /><rect
   style="fill:#ffffff;stroke-width:0.961078"
   id="rect450"
   width="50"
   height="80"
   x="394.72849"
   y="524.60266"
   inkscape:export-filename="src/characters/7_01.png"
   inkscape:export-xdpi="250"
   inkscape:export-ydpi="250" /><rect
   style="fill:#ffffff;stroke-width:0.961078"
   id="rect451"
   width="50"
   height="80"
   x="449.65024"
   y="524.60266"
   inkscape:export-filename="src/characters/8_01.png"
   inkscape:export-xdpi="250"
   inkscape:export-ydpi="250" /><rect
   style="fill:#ffffff;stroke-width:0.961078"
   id="rect452"
   width="50"
   height="80"
   x="504.18005"
   y="524.60266"
   inkscape:export-filename="src/characters/9_01.png"
   inkscape:export-xdpi="250"
   inkscape:export-ydpi="250" /><rect
   style="fill:#ffffff;stroke-width:0.961078"
   id="rect453"
   width="50"
   height="80"
   x="558.7099"
   y="524.60266" /><rect
   style="fill:#ffffff;stroke-width:0.961078"
   id="rect454"
   width="50"
   height="80"
   x="613.23969"
   y="524.60266" /><rect
   style="fill:#ffffff;stroke-width:0.961078"
   id="rect455"
   width="50"
   height="80"
   x="670.06891"
   y="525.91663" /><path
   d="m 57.448184,585.67866 c 0,2.858 -0.986,5.289 -2.959,7.29 -1.973,1.973 -4.446,2.959 -7.418,2.959 h -16.467 c -2.859,0 -5.274,-0.986 -7.247,-2.959 -2.001,-2.001 -3.001,-4.432 -3.001,-7.29 v -41.981 c 0,-2.887 1,-5.317 3.001,-7.29 2.03,-2.086 4.445,-3.13 7.247,-3.13 h 16.467 c 2.029,0 3.988,0.557 5.875,1.672 1.658,1.144 2.93,2.702 3.816,4.674 0,0.029 0.043,0.072 0.129,0.129 0,0.058 0,0.172 0,0.343 0,0.544 -0.171,0.901 -0.515,1.072 l -6.775,6.347 c -0.429,0.372 -0.83,0.558 -1.201,0.558 -0.801,0 -1.201,-0.472 -1.201,-1.415 v -3.688 c 0,-0.429 -0.2,-0.828 -0.6,-1.2 -0.315,-0.314 -0.715,-0.472 -1.201,-0.472 h -13.336 c -1.115,0 -1.672,0.558 -1.672,1.672 v 41.296 c 0,0.457 0.157,0.844 0.472,1.157 0.286,0.344 0.686,0.515 1.201,0.515 h 13.722 c 1.115,0 1.672,-0.558 1.672,-1.672 v -29.846 c 0,-0.058 0.021,-0.136 0.064,-0.236 0.043,-0.1 0.064,-0.221 0.064,-0.364 0,-0.057 0.186,-0.3 0.557,-0.729 l 8.748,-7.761 c 0.143,-0.144 0.3,-0.215 0.472,-0.215 0.057,0 0.086,0.071 0.086,0.215 z"
   id="path455" /><path
   d="m 111.00568,594.25466 c 0,1.115 -0.54301,1.673 -1.62901,1.673 H 75.584676 c -1.115,0 -1.672,-0.558 -1.672,-1.673 v -6.561 c 0,-1.172 0.558,-1.759 1.672,-1.759 h 13.722 c 0.486,0 0.886,-0.171 1.201,-0.515 0.314,-0.313 0.472,-0.7 0.472,-1.157 v -37.736 c 0,-0.143 -0.043,-0.257 -0.128,-0.343 -0.086,-0.086 -0.243,-0.129 -0.472,-0.129 -0.172,0 -0.308,0 -0.408,0 -0.1,0 -0.208,0 -0.321,0 0.028,-0.028 -0.172,0.129 -0.601,0.472 l -5.575,5.146 c -0.058,0.086 -0.186,0.201 -0.386,0.344 -0.343,0.371 -0.629,0.65 -0.857,0.836 -0.229,0.187 -0.372,0.308 -0.429,0.364 -0.171,0.086 -0.572,0.129 -1.201,0.129 h -5.017 c -0.458,0 -0.857,-0.157 -1.201,-0.472 -0.315,-0.343 -0.472,-0.743 -0.472,-1.201 v -5.146 c 0,-0.457 0.2,-0.857 0.601,-1.2 0.542,-0.344 1.143,-0.615 1.801,-0.815 0.972,-0.343 1.644,-0.7 2.016,-1.071 l 10.635,-9.648 c 0.285,-0.344 0.714,-0.515 1.286,-0.515 h 9.091 c 1.115004,0 1.672004,0.6 1.672004,1.801 v 49.186 c 0,1.114 0.585,1.672 1.758,1.672 h 6.60399 c 1.086,0 1.629,0.587 1.629,1.759 v 6.559 z"
   id="path456" /><path
   d="m 165.99011,594.25516 c 0,1.115 -0.543,1.672 -1.63,1.672 h -33.78999 c -1.115,0 -1.672,-0.557 -1.672,-1.672 v -8.319 c 0,-0.857 0.2,-1.544 0.6,-2.059 0.229,-0.485 0.7,-1.157 1.415,-2.015 1.315,-1.4 3.587,-3.674 6.818,-6.818 1.372,-1.372 2.651,-2.63 3.838,-3.773 1.186,-1.144 2.251,-2.23 3.19499,-3.26 1.743,-1.829 3.573,-3.902 5.48901,-6.218 1.74399,-2.258 3.14499,-4.444 4.20299,-6.561 1.029,-2.115 1.543,-4.26 1.543,-6.433 0,-2.086 -0.68599,-3.516 -2.058,-4.288 -1.28699,-0.8 -3.031,-1.2 -5.23199,-1.2 -2.229,0 -3.974,0.4 -5.231,1.2 -1.372,0.687 -2.058,2.116 -2.058,4.288 0,0.715 -0.115,1.315 -0.343,1.802 -0.372,0.486 -0.886,0.729 -1.543,0.729 h -6.476 c -1.086,0 -1.629,-0.601 -1.629,-1.801 v -2.401 c 0,-2.344 0.472,-4.402 1.415,-6.175 0.772,-1.716 2.044,-3.188 3.816,-4.417 1.601,-1.115 3.431,-1.915 5.489,-2.401 1.915,-0.572 4.102,-0.857 6.56099,-0.857 2.344,0 4.488,0.285 6.433,0.857 1.887,0.429 3.75901,1.229 5.61701,2.401 1.54399,1.114 2.815,2.587 3.817,4.417 0.94299,1.772 1.415,3.831 1.415,6.175 0,3.459 -0.429,6.489 -1.28701,9.091 -0.857,2.744 -2.016,5.246 -3.47399,7.504 -1.22901,1.973 -2.81601,4.003 -4.76001,6.09 -1.744,1.944 -4.06,4.245 -6.947,6.903 -1.315,1.287 -2.452,2.423 -3.409,3.409 -0.958,0.986 -1.766,1.809 -2.423,2.466 -0.943,1.087 -1.415,1.959 -1.415,2.616 0,0.486 0.229,0.729 0.686,0.729 h 21.398 c 1.086,0 1.63,0.586 1.63,1.759 v 6.56 z"
   id="path457" /><path
   d="m 220.54775,576.24466 c 0,6.662 -1.544,11.594 -4.631,14.795 -3.03,3.259 -7.89,4.889 -14.58,4.889 -5.947,0 -10.435,-1.387 -13.465,-4.16 -2.945,-2.801 -4.417,-7.104 -4.417,-12.907 0,-1.115 0.558,-1.672 1.672,-1.672 h 6.689 c 1.115,0 1.672,0.643 1.672,1.93 0,2.658 0.628,4.445 1.887,5.359 1.344,0.973 3.33,1.458 5.961,1.458 3.03,0 5.302,-0.757 6.818,-2.272 1.601,-1.372 2.401,-3.53 2.401,-6.475 0,-2.545 -0.042,-4.203 -0.12799,-4.975 -0.315,-1.43 -0.62901,-2.387 -0.94301,-2.873 -0.429,-0.743 -1.144,-1.301 -2.144,-1.673 -0.83,-0.313 -2.187,-0.472 -4.074,-0.472 h -5.618 c -0.372,0 -0.772,-0.199 -1.201,-0.6 -0.315,-0.344 -0.472,-0.743 -0.472,-1.201 v -4.074 c 0,-0.456 0.043,-0.843 0.128,-1.157 0.229,-0.457 0.515,-0.9 0.858,-1.329 l 12.993,-13.723 c 0.4,-0.399 0.6,-1.115 0.6,-2.144 0,-0.486 -0.157,-0.886 -0.472,-1.201 -0.372,-0.314 -0.771,-0.472 -1.201,-0.472 h -21.269 c -1.087,0 -1.63,-0.601 -1.63,-1.801 v -4.417 c 0,-0.571 0.157,-1 0.472,-1.286 0.286,-0.344 0.671,-0.515 1.158,-0.515 h 31.304 c 1.086,0 1.629,0.6 1.629,1.801 v 10.163 c 0,0.457 -0.029,0.814 -0.086,1.072 0,0.257 -0.157,0.572 -0.472,0.943 l -11.492,12.649 c -0.144,0.43 -0.214,0.63 -0.214,0.601 0,0.458 0.271,0.729 0.814,0.814 2.401,0.344 4.56,0.873 6.476,1.587 1.429,0.658 2.544,1.572 3.345,2.744 0.686,1.087 1.158,2.388 1.415,3.902 0.145,1.862 0.217,4.092 0.217,6.692 z"
   id="path458" /><path
   d="m 275.07804,582.93316 c 0,1.201 -0.543,1.802 -1.63,1.802 h -1.115 c -1.17199,0 -1.758,0.586 -1.758,1.758 v 7.762 c 0,1.115 -0.6,1.673 -1.80099,1.673 h -6.56101 c -0.543,0 -0.943,-0.157 -1.20099,-0.473 -0.315,-0.313 -0.47201,-0.714 -0.47201,-1.2 v -7.762 c 0,-0.343 -0.157,-0.771 -0.472,-1.286 -0.315,-0.314 -0.715,-0.472 -1.201,-0.472 h -19.21099 c -0.37201,0 -0.772,-0.2 -1.20101,-0.601 -0.315,-0.343 -0.47199,-0.743 -0.47199,-1.201 v -7.633 c 0,-0.886 0.085,-1.687 0.257,-2.401 0.057,-1 0.37099,-1.986 0.94299,-2.959 l 21.012,-34.862 c 0.31401,-0.687 0.743,-1.158 1.28701,-1.415 0.457,-0.258 0.815,-0.386 1.072,-0.386 h 5.403 c 1.48599,0 2.23,0.6 2.23,1.801 0,0.486 -0.115,0.93 -0.343,1.329 l -21.612,36.149 c -0.144,0.572 -0.214,0.93 -0.214,1.072 0,0.943 0.558,1.415 1.672,1.415 h 9.177 c 0.515,0 0.91499,-0.157 1.20099,-0.472 0.31401,-0.486 0.47201,-0.886 0.47201,-1.201 v -9.048 c 0,-0.515 0.157,-0.957 0.472,-1.329 0.48599,-0.314 0.886,-0.472 1.201,-0.472 h 6.561 c 1.201,0 1.80099,0.601 1.80099,1.801 v 9.048 c 0,0.486 0.15701,0.887 0.47201,1.201 0.257,0.314 0.687,0.472 1.287,0.472 h 1.115 c 0.257,0 0.644,0.157 1.158,0.472 0.31399,0.314 0.472,0.715 0.472,1.2 v 6.218 z"
   id="path459" /><path
   d="m 329.6435,575.30116 c 0,7.119 -1.501,12.293 -4.502,15.523 -3.002,3.402 -8.219,5.104 -15.652,5.104 -3.602,0 -6.218,-0.157 -7.848,-0.472 -2.116,-0.344 -3.788,-0.972 -5.017,-1.887 -1.287,-0.858 -2.331,-2.33 -3.13,-4.417 -0.629,-1.744 -0.943,-4.331 -0.943,-7.762 0,-1.115 0.558,-1.673 1.672,-1.673 h 6.561 c 0.486,0 0.886,0.158 1.201,0.472 0.4,0.401 0.6,0.801 0.6,1.201 0,2.03 0.515,3.259 1.544,3.688 0.886,0.572 2.715,0.857 5.489,0.857 3.917,0 6.546,-0.843 7.89,-2.529 1.429,-1.687 2.144,-4.389 2.144,-8.105 0,-2.401 -0.085,-4.03 -0.257,-4.888 -0.143,-1.344 -0.5,-2.545 -1.072,-3.603 -0.601,-1.143 -1.43,-2.016 -2.487,-2.615 -0.943,-0.629 -2.373,-0.944 -4.288,-0.944 -1.001,0 -1.887,0.115 -2.659,0.344 -0.972,0.372 -1.758,0.729 -2.358,1.072 -0.972,0.429 -1.658,0.758 -2.059,0.985 -1.001,0.144 -1.629,0.215 -1.887,0.215 h -8.362 c -1.115,0 -1.672,-0.601 -1.672,-1.801 v -28.988 c 0,-1.201 0.558,-1.801 1.672,-1.801 h 33.791 c 1.086,0 1.629,0.6 1.629,1.801 v 4.417 c 0,1.2 -0.543,1.801 -1.629,1.801 h -23.757 c -1.115,0 -1.672,0.558 -1.672,1.673 v 14.193 c 0,0.4 0.271,0.601 0.815,0.601 0.571,0 1.458,-0.357 2.659,-1.072 1.229,-0.686 2.53,-1.286 3.902,-1.801 1.543,-0.4 3.173,-0.601 4.888,-0.601 1.944,0 3.587,0.157 4.932,0.472 1.343,0.229 2.887,1.029 4.631,2.401 1.4,1.229 2.672,3.331 3.816,6.304 0.943,3.002 1.415,6.947 1.415,11.835 z"
   id="path460" /><path
   d="m 384.13664,575.17316 c 0,2.658 -0.385,5.16 -1.158,7.504 -0.914,2.487 -2.115,4.717 -3.602,6.689 -1.486,2.002 -3.43,3.603 -5.832,4.803 -2.315,1.173 -4.903,1.759 -7.761,1.759 -3.002,0 -5.546,-0.558 -7.633,-1.673 -2.459,-1.086 -4.446,-2.63 -5.961,-4.631 -1.744,-2.001 -3.016,-4.23 -3.816,-6.69 -0.886,-2.229 -1.329,-4.816 -1.329,-7.761 0,-4.517 0.757,-9.049 2.272,-13.594 1.4,-4.23 3.23,-8.491 5.489,-12.779 2.087,-3.573 3.959,-6.589 5.618,-9.048 1.658,-2.43 2.772,-3.988 3.345,-4.674 0.601,-0.715 1.072,-1.187 1.415,-1.415 0.457,-0.258 0.772,-0.386 0.943,-0.386 h 5.747 c 1.51601,0 2.27301,0.6 2.27301,1.801 0,0.429 -0.129,0.872 -0.387,1.329 -1.801,2.859 -3.366,5.425 -4.69601,7.697 -1.329,2.272 -2.50799,4.238 -3.538,5.896 -0.943,1.688 -1.666,3.002 -2.166,3.945 -0.5,0.943 -0.808,1.501 -0.922,1.672 0,0.086 0,0.136 0,0.15 0,0.014 0,0.036 0,0.064 0,0.086 0,0.136 0,0.149 0,0.016 0,0.051 0,0.107 0,0.229 0.2,0.344 0.6,0.344 0.286,-0.058 0.66501,-0.136 1.137,-0.236 0.472,-0.1 1.05,-0.221 1.736,-0.364 1.373,-0.229 2.759,-0.344 4.16,-0.344 2.74501,0 5.08801,0.515 7.032,1.544 1.803,0.887 3.274,2.288 4.418,4.203 0.971,1.743 1.65801,3.759 2.05901,6.046 0.37099,1.919 0.557,4.549 0.55699,7.893 z m -9.991,0 c 0,-1.716 -0.158,-3.345 -0.473,-4.889 -0.457,-1.887 -0.986,-3.402 -1.586,-4.546 -0.401,-0.628 -1.273,-1.057 -2.616,-1.286 -1.287,-0.258 -2.559,-0.386 -3.817,-0.386 -1.315,0 -2.63,0.128 -3.945,0.386 -1.401,0.229 -2.273,0.658 -2.616,1.286 -0.772,1.658 -1.28699,3.174 -1.54399,4.546 -0.315,1.544 -0.472,3.173 -0.472,4.889 0,3.001 0.671,5.546 2.016,7.633 1.4,2.087 3.587,3.13 6.561,3.13 3.02999,0 5.174,-1.043 6.433,-3.13 1.37099,-1.887 2.059,-4.431 2.05899,-7.633 z"
   id="path461" /><path
   d="m 438.27598,543.44116 c 0,1.314 -0.357,2.787 -1.072,4.416 -0.43,0.858 -0.89999,1.766 -1.416,2.724 -0.514,0.958 -1.072,2.037 -1.672,3.237 -0.115,0.144 -0.215,0.294 -0.301,0.45 -0.086,0.157 -0.18599,0.294 -0.29899,0.407 l -12.393,22.899 c -1.029,1.829 -1.545,3.702 -1.545,5.617 v 11.063 c 0,0.343 -0.17201,0.744 -0.514,1.201 -0.287,0.314 -0.67201,0.472 -1.15801,0.472 h -7.547 c -1.115,0 -1.674,-0.558 -1.674,-1.673 v -11.062 c 0,-1.601 0.043,-2.687 0.12901,-3.259 0,-0.857 0.242,-1.644 0.73,-2.358 l 16.209,-30.061 v -0.129 c 0.314,-0.485 0.471,-1.243 0.471,-2.272 0,-1.2 -0.586,-1.801 -1.758,-1.801 h -11.578 c -1.115,0 -1.672,0.601 -1.672,1.801 v 3.945 c 0,1.173 -0.602,1.758 -1.801,1.758 h -6.562 c -1.113,0 -1.672,-0.585 -1.672,-1.758 v -13.979 c 0,-0.429 0.158,-0.829 0.473,-1.201 0.428,-0.399 0.828,-0.6 1.199,-0.6 h 33.535 c 0.428,0 0.87099,0.2 1.32799,0.6 0.371,0.315 0.55901,0.716 0.55901,1.201 v 8.362 z"
   id="path462" /><path
   d="m 493.19574,575.64466 c 0,2.544 -0.156,4.702 -0.471,6.475 -0.344,2.087 -1.131,4.231 -2.359,6.433 -1.229,2.173 -3.145,3.96 -5.746,5.36 -2.516,1.344 -5.861,2.016 -10.035,2.016 -4.05901,0 -7.361,-0.672 -9.904,-2.016 -2.602,-1.372 -4.504,-3.159 -5.703,-5.36 -1.23,-2.173 -2.031,-4.316 -2.402,-6.433 -0.314,-2.001 -0.471,-4.159 -0.471,-6.475 0,-2.001 0.156,-3.674 0.471,-5.018 0.486,-1.687 0.93,-2.83 1.33,-3.431 0.428,-0.914 0.943,-1.672 1.543,-2.272 0.285,-0.285 0.607,-0.579 0.965,-0.879 0.357,-0.301 0.707,-0.607 1.051,-0.922 1.115,-0.858 1.672,-1.615 1.672,-2.273 0,-0.571 -0.4,-1.329 -1.199,-2.272 -1.088,-1.143 -1.916,-2.372 -2.488,-3.688 -0.543,-1.201 -0.814,-3.145 -0.814,-5.832 0,-5.774 1.22899,-9.834 3.68799,-12.179 2.488,-2.401 6.57601,-3.602 12.26401,-3.602 5.689,0 9.834,1.157 12.43799,3.473 2.457,2.259 3.688,6.204 3.688,11.836 0,2.572 -0.273,4.475 -0.814,5.703 -0.602,1.315 -1.402,2.545 -2.402,3.688 -0.887,1.115 -1.33,1.959 -1.33,2.53 0,0.601 0.55901,1.358 1.674,2.272 0.342,0.344 0.691,0.673 1.051,0.986 0.355,0.315 0.691,0.615 1.008,0.9 0.713,0.943 1.229,1.744 1.543,2.401 0.43,0.744 0.857,1.93 1.287,3.56 0.308,1.203 0.465,2.874 0.46501,5.019 z m -9.991,0 c 0,-3.26 -0.688,-5.875 -2.05901,-7.848 -1.40199,-2.001 -3.588,-3.002 -6.562,-3.002 -3,0 -5.14499,1.001 -6.432,3.002 -1.344,1.801 -2.016,4.417 -2.016,7.848 0,3.316 0.672,5.86 2.016,7.633 1.287,1.772 3.432,2.658 6.432,2.658 3.08801,0 5.275,-0.886 6.562,-2.658 1.37201,-1.773 2.05901,-4.317 2.05901,-7.633 z m -2.531,-27.059 c 0,-2.63 -0.428,-4.503 -1.287,-5.618 -0.799,-1.114 -2.4,-1.672 -4.803,-1.672 -2.314,0 -3.859,0.629 -4.631,1.887 -0.887,1.144 -1.328,3.103 -1.328,5.875 0,2.773 0.441,4.717 1.328,5.832 0.801,1.344 2.344,2.016 4.631,2.016 2.344,0 3.945,-0.715 4.803,-2.145 0.859,-1.286 1.287,-3.345 1.287,-6.175 z"
   id="path463" /><path
   d="m 547.72755,554.15966 c 0,3.66 -0.27301,6.848 -0.81401,9.562 -0.744,3.06 -1.85899,5.719 -3.346,7.977 l -15.051,22.556 c -0.459,0.629 -0.81599,1.029 -1.072,1.2 -0.28699,0.315 -0.672,0.473 -1.158,0.473 h -8.14799 c -1.486,0 -2.229,-0.515 -2.229,-1.544 0,-0.743 0.271,-1.458 0.814,-2.145 l 17.539,-25.3 c 1.113,-1.572 1.986,-3.517 2.615,-5.832 0.572,-2.287 0.857,-4.603 0.857,-6.947 0,-3.716 -0.557,-6.417 -1.672,-8.104 -1.23,-1.829 -3.545,-2.744 -6.947,-2.744 -3.088,0 -5.275,1.001 -6.561,3.002 -1.258,1.972 -1.887,4.588 -1.887,7.847 0,2.059 0.242,3.688 0.729,4.889 0.514,1.315 1.229,2.229 2.145,2.744 0.971,0.63 1.957,1.001 2.959,1.115 1.258,0.229 2.658,0.343 4.201,0.343 0.457,0 0.688,0.201 0.688,0.601 0,0.144 -0.043,0.215 -0.129,0.215 -0.086,0.371 -0.314,0.929 -0.688,1.672 -0.771,1.201 -1.371,2.087 -1.801,2.659 -0.715,1.058 -1.586,1.93 -2.615,2.615 -0.943,0.801 -2.016,1.201 -3.217,1.201 -2.344,0 -4.373,-0.558 -6.088,-1.673 -1.631,-1.029 -2.902,-2.43 -3.816,-4.202 -0.943,-1.801 -1.588,-3.702 -1.93,-5.703 -0.316,-1.887 -0.473,-4.045 -0.473,-6.476 0,-6.546 1.473,-11.635 4.418,-15.266 3.029,-3.745 7.719,-5.617 14.064,-5.617 6.66,0 11.479,1.715 14.451,5.146 2.775,3.371 4.162,8.617 4.162,15.736 z"
   id="path464" /></svg>
